<svg width="24" height="15" viewBox="0 0 24 15" fill="none" xmlns="http://www.w3.org/2000/svg">
<g clip-path="url(#clip0_425_57)">
<path d="M22.9277 8.00738C23.1126 7.82248 23.1126 7.52271 22.9277 7.33782L19.9147 4.32479C19.7298 4.1399 19.4301 4.1399 19.2452 4.32479C19.0603 4.50969 19.0603 4.80946 19.2452 4.99435L21.9234 7.6726L19.2452 10.3509C19.0603 10.5357 19.0603 10.8355 19.2452 11.0204C19.4301 11.2053 19.7298 11.2053 19.9147 11.0204L22.9277 8.00738ZM0.814209 8.14605H2.17538V7.19915H0.814209V8.14605ZM4.89773 8.14605H7.62007V7.19915H4.89773V8.14605ZM10.3424 8.14605H13.0648V7.19915H10.3424V8.14605ZM15.7871 8.14605H18.5095V7.19915H15.7871V8.14605ZM21.2318 8.14605H22.593V7.19915H21.2318V8.14605ZM23.2625 8.34216C23.6323 7.97237 23.6323 7.37282 23.2625 7.00304L17.2365 0.976988C16.8667 0.607199 16.2671 0.607199 15.8974 0.976988C15.5276 1.34677 15.5276 1.94632 15.8974 2.31611L21.2538 7.6726L15.8974 13.0291C15.5276 13.3989 15.5276 13.9984 15.8974 14.3682C16.2671 14.738 16.8667 14.738 17.2365 14.3682L23.2625 8.34216ZM0.814209 8.6195H2.17538V6.72569H0.814209V8.6195ZM4.89773 8.6195H7.62007V6.72569H4.89773V8.6195ZM10.3424 8.6195H13.0648V6.72569H10.3424V8.6195ZM15.7871 8.6195H18.5095V6.72569H15.7871V8.6195ZM21.2318 8.6195H22.593V6.72569H21.2318V8.6195Z" fill="white"/>
</g>
<defs>
<clipPath id="clip0_425_57">
<rect width="24" height="15" fill="white"/>
</clipPath>
</defs>
</svg>
