<svg width="24" height="15" viewBox="0 0 24 15" fill="none" xmlns="http://www.w3.org/2000/svg">
<path d="M22.9277 8.00739C23.1126 7.82249 23.1126 7.52272 22.9277 7.33783L19.9147 4.3248C19.7298 4.13991 19.4301 4.13991 19.2452 4.3248C19.0603 4.5097 19.0603 4.80947 19.2452 4.99436L21.9234 7.67261L19.2452 10.3509C19.0603 10.5357 19.0603 10.8355 19.2452 11.0204C19.4301 11.2053 19.7298 11.2053 19.9147 11.0204L22.9277 8.00739ZM0.814209 8.14606H2.17538V7.19916H0.814209V8.14606ZM4.89773 8.14606H7.62007V7.19916H4.89773V8.14606ZM10.3424 8.14606H13.0648V7.19916H10.3424V8.14606ZM15.7871 8.14606H18.5095V7.19916H15.7871V8.14606ZM21.2318 8.14606H22.593V7.19916H21.2318V8.14606ZM23.2625 8.34217C23.6323 7.97238 23.6323 7.37283 23.2625 7.00305L17.2365 0.976995C16.8667 0.607206 16.2671 0.607206 15.8974 0.976995C15.5276 1.34678 15.5276 1.94633 15.8974 2.31612L21.2538 7.67261L15.8974 13.0291C15.5276 13.3989 15.5276 13.9984 15.8974 14.3682C16.2671 14.738 16.8667 14.738 17.2365 14.3682L23.2625 8.34217ZM0.814209 8.61951H2.17538V6.7257H0.814209V8.61951ZM4.89773 8.61951H7.62007V6.7257H4.89773V8.61951ZM10.3424 8.61951H13.0648V6.7257H10.3424V8.61951ZM15.7871 8.61951H18.5095V6.7257H15.7871V8.61951ZM21.2318 8.61951H22.593V6.7257H21.2318V8.61951Z" fill="white"/>
</svg>
