<svg width="452" height="543" viewBox="0 0 452 543" fill="none" xmlns="http://www.w3.org/2000/svg">
<path d="M373.809 14.7833C374.623 13.8079 375.455 12.8362 376.285 11.8732C376.799 11.2812 377.376 10.7531 377.767 10.0526C377.874 9.85868 377.862 9.56156 378.098 9.48676L378.093 9.49021C378.211 9.28938 378.294 9.05831 378.453 8.89833C379.046 8.28606 379.563 7.54295 380.22 7.03153C380.244 7.00894 380.229 6.93674 380.26 6.90192C380.419 6.74195 381.023 6.19659 381.358 5.80651C382.142 4.90281 382.959 4.02935 384.116 3.46176C384.295 3.37054 386.391 1.73396 387.439 2.69059C388.533 3.69338 387.158 5.84025 386.892 6.03776C386.256 6.52127 385.462 6.87481 385.121 7.61804C384.617 8.70924 383.688 9.40755 382.964 10.2961C382.313 11.094 381.555 11.7959 380.916 12.6009C380.316 13.359 379.895 14.2789 379.227 14.9764C378.651 15.5783 377.808 15.9401 377.141 16.4585C376.981 16.5815 377.018 16.9299 376.854 17.0705C376.72 17.185 376.511 17.3989 376.295 17.4459C376.202 17.4677 376.102 17.4789 376.09 17.5684C376.037 17.9808 373.873 19.7643 372.609 18.5875C371.365 17.4425 373.104 15.6299 373.809 14.7833Z" fill="black"/>
<path d="M387.042 28.2743C387.932 27.6599 388.823 27.0596 389.723 26.4611C390.274 26.098 390.872 25.8091 391.341 25.3045C391.467 25.1653 391.515 24.8899 391.739 24.9046C391.879 24.7637 391.993 24.5804 392.158 24.4908C392.787 24.1302 393.37 23.6356 394.032 23.3878C394.058 23.3793 394.057 23.3055 394.09 23.2848C394.26 23.1917 394.878 22.8978 395.247 22.6574C396.095 22.0989 396.961 21.5809 398.058 21.452C398.23 21.4328 400.339 20.6416 401.068 21.8672C401.824 23.1353 400.232 24.6243 399.972 24.7217C399.334 24.9469 398.58 25.0004 398.147 25.5634C397.509 26.3825 396.574 26.7064 395.784 27.2727C395.073 27.7817 394.286 28.16 393.587 28.6762C392.928 29.1595 392.389 29.8566 391.684 30.2656C391.071 30.6158 390.281 30.6619 389.608 30.9165C389.446 30.9746 389.417 31.3046 389.247 31.3749C389.108 31.4331 388.888 31.5573 388.701 31.5272C388.616 31.514 388.524 31.4902 388.496 31.5672C388.369 31.9226 386.179 32.8165 385.306 31.3258C384.433 29.872 386.27 28.8073 387.042 28.2743Z" fill="black"/>
<path d="M397.86 46.6423C399.158 46.2379 400.463 45.8441 401.765 45.4591C402.564 45.2216 403.386 45.081 404.145 44.6831C404.352 44.5746 404.522 44.311 404.775 44.3735L404.77 44.377C404.991 44.2668 405.203 44.118 405.44 44.0572C406.325 43.847 407.223 43.4875 408.098 43.395C408.132 43.3883 408.163 43.3166 408.212 43.3083C408.447 43.2563 409.294 43.1072 409.828 42.9477C411.055 42.5882 412.289 42.2763 413.63 42.4013C413.84 42.4176 416.643 42.1312 416.967 43.5159C417.3 44.9622 414.812 46.0744 414.462 46.1024C413.618 46.183 412.721 46.0592 411.973 46.5099C410.874 47.1818 409.645 47.2829 408.483 47.6606C407.437 48.0027 406.357 48.195 405.317 48.5477C404.339 48.8764 403.413 49.4465 402.413 49.6924C401.552 49.9029 400.607 49.7645 399.714 49.8534C399.505 49.874 399.322 50.1901 399.095 50.2299C398.907 50.2595 398.599 50.3283 398.39 50.2522C398.3 50.2197 398.204 50.1765 398.136 50.2495C397.838 50.5785 394.893 50.9548 394.513 49.2637C394.134 47.6236 396.737 46.9958 397.86 46.6423Z" fill="black"/>
<path d="M74.4986 39.3967C74.758 40.8974 75.0032 42.3943 75.2443 43.8961C75.3871 44.8174 75.4436 45.7485 75.755 46.6551C75.8369 46.9021 76.0875 47.1343 75.9926 47.4058L75.9967 47.4009C76.0803 47.6662 76.2138 47.9238 76.2426 48.1924C76.3571 49.207 76.6119 50.2498 76.6044 51.2352C76.6035 51.2765 76.6765 51.3225 76.6815 51.3772C76.7103 51.6457 76.7601 52.6047 76.8567 53.2173C77.0804 54.6285 77.2494 56.043 76.9633 57.5033C76.915 57.7307 76.8865 60.875 75.4285 60.9996C73.9116 61.1323 73.0732 58.2007 73.0793 57.8109C73.1042 56.8657 73.3334 55.8945 72.954 54.9966C72.3989 53.6787 72.4399 52.3019 72.1904 50.961C71.9665 49.7514 71.8928 48.5281 71.6598 47.319C71.4383 46.1872 70.966 45.075 70.835 43.9285C70.723 42.9412 70.9755 41.9227 70.9863 40.9234C70.9882 40.6896 70.6854 40.4376 70.6756 40.1771C70.67 39.9621 70.6338 39.6116 70.7378 39.39C70.7843 39.2956 70.8392 39.1915 70.777 39.1128C70.481 38.7321 70.444 35.4222 72.2125 35.2789C73.9387 35.1243 74.2756 38.0954 74.4986 39.3967Z" fill="black"/>
<path d="M59.155 55.8371C59.825 56.7999 60.4866 57.7724 61.1391 58.7454C61.5421 59.3441 61.862 59.9891 62.3995 60.5018C62.5455 60.6441 62.8352 60.7 62.8333 60.9337C62.9851 61.0895 63.1801 61.2151 63.2837 61.3967C63.68 62.0737 64.2199 62.7145 64.4998 63.426C64.5114 63.4528 64.5895 63.4527 64.6069 63.4928C64.7105 63.6744 65.037 64.3419 65.3023 64.7381C65.9134 65.6587 66.4846 66.5954 66.6546 67.767C66.6801 67.9487 67.5739 70.222 66.3263 70.9477C65.0264 71.7042 63.4181 69.9596 63.3055 69.6778C63.0462 68.9926 62.9647 68.1912 62.3657 67.7097C61.4847 67.0025 61.1186 65.9984 60.4992 65.1379C59.9428 64.3652 59.5218 63.5156 58.9571 62.7526C58.4239 62.0335 57.6864 61.4413 57.2363 60.6759C56.8508 60.0166 56.7702 59.174 56.4894 58.4534C56.419 58.2835 56.0794 58.2353 55.9941 58.0526C55.9253 57.901 55.7935 57.6616 55.8169 57.4632C55.8278 57.3801 55.8462 57.2782 55.7698 57.2462C55.3939 57.0994 54.3864 54.7368 55.9106 53.8706C57.4032 53.011 58.5746 55.0017 59.155 55.8371Z" fill="black"/>
<path d="M38.8648 69.0785C40.3278 69.8743 41.7783 70.6847 43.2338 71.4993C44.1283 71.9996 44.9704 72.581 45.944 72.9391C46.2095 73.0331 46.5599 72.9982 46.739 73.2531L46.734 73.2488C47.0146 73.3555 47.315 73.429 47.5673 73.5787C48.5157 74.1674 49.5837 74.6573 50.4383 75.3249C50.4681 75.3506 50.5528 75.3226 50.6109 75.3557C50.864 75.5146 51.731 76.1173 52.321 76.4482C53.6852 77.218 55.0253 78.0258 56.1301 79.2281C56.3034 79.4192 59.0296 81.5452 58.2871 82.7811C57.5172 84.069 54.4624 82.7782 54.1255 82.5054C53.3142 81.858 52.6009 81.0261 51.5908 80.7205C50.1134 80.2737 48.9354 79.3278 47.6135 78.6196C46.4268 77.9857 45.3117 77.2285 44.1167 76.6043C42.999 76.0212 41.749 75.6523 40.6745 74.9887C39.746 74.4171 39.0004 73.5322 38.1359 72.856C37.9335 72.6987 37.5308 72.7642 37.3051 72.6038C37.1184 72.4684 36.7873 72.2594 36.6564 72.0291C36.6016 71.9316 36.5453 71.8159 36.4349 71.8134C35.9235 71.7938 33.013 69.6102 33.9201 68.1125C34.8047 66.6711 37.5952 68.39 38.8648 69.0785Z" fill="black"/>
<path d="M417.015 532.363C418.091 532.43 418.685 531.096 417.871 530.319L417.79 529.997C417.801 529.972 417.812 529.946 417.823 529.92C418.91 527.331 422.597 527.349 423.676 529.942C424.633 532.244 425.852 534.549 426.152 536.983C426.287 538.057 426.226 539.152 425.987 540.206C428.23 535.314 429.411 529.973 429.411 524.601C429.411 523.252 429.337 521.902 429.186 520.556C429.061 519.455 428.89 518.36 428.668 517.276C427.467 511.414 424.867 505.831 421.118 501.168C419.315 500.184 417.812 498.646 416.904 496.803C416.578 496.138 416.322 495.423 416.201 494.695C416.406 494.722 416.974 491.603 416.82 491.411C417.106 490.978 417.617 490.763 417.93 490.341C419.482 488.239 421.622 488.606 422.739 491.462C425.125 492.664 425.148 494.658 423.684 496.575C422.752 497.795 422.624 499.445 421.807 500.751C421.891 500.859 421.979 500.963 422.063 501.07C423.604 503.044 424.938 505.166 426.062 507.395C425.744 504.918 426.213 501.933 427.013 500.009C427.923 497.817 429.629 495.971 431.132 494.076C432.937 491.8 436.637 492.793 436.955 495.679C436.958 495.707 436.961 495.735 436.964 495.762C436.741 495.888 436.522 496.022 436.309 496.163C435.091 496.967 435.512 498.852 436.955 499.074L436.988 499.079C436.907 499.882 436.769 500.677 436.567 501.46C438.495 508.901 434.334 511.611 428.392 511.733C428.261 511.8 428.133 511.867 428.002 511.931C428.604 513.623 429.085 515.359 429.441 517.118C429.761 518.672 429.983 520.244 430.107 521.822C430.262 523.812 430.248 525.813 430.08 527.801L430.09 527.73C430.517 525.541 431.708 523.497 433.436 522.08C436.012 519.968 439.65 519.191 442.428 517.493C443.765 516.676 445.479 517.732 445.245 519.28L445.234 519.354C444.82 519.522 444.417 519.717 444.027 519.935C443.803 520.06 443.585 520.194 443.371 520.335C442.153 521.139 442.574 523.024 444.017 523.247L444.05 523.252C444.074 523.255 444.094 523.258 444.117 523.262C443.408 524.944 442.419 526.505 441.181 527.851C439.976 534.347 434.8 534.963 429.263 533.072H429.26C428.654 535.704 427.77 538.275 426.633 540.726H417.25C417.217 540.622 417.186 540.515 417.156 540.411C418.024 540.464 418.898 540.414 419.752 540.256C419.056 539.404 418.36 538.544 417.664 537.691C417.647 537.675 417.634 537.658 417.62 537.641C417.267 537.205 416.911 536.771 416.557 536.335L416.557 536.334C416.535 534.995 416.696 533.659 417.015 532.363L417.015 532.363V532.363L417.015 532.363Z" fill="#F2F2F2"/>
<path d="M106 540.938C106 541.281 106.276 541.557 106.62 541.557H449.38C449.724 541.557 450 541.281 450 540.938C450 540.595 449.724 540.32 449.38 540.32H106.62C106.276 540.32 106 540.595 106 540.938Z" fill="#CCCCCC"/>
<path d="M319.83 543C290.525 543 261.264 542.476 232.046 541.428C190.298 539.931 147.128 538.383 107.003 516.159C78.934 500.614 54.0746 475.672 35.1129 444.03C22.4392 422.583 13.1463 399.316 7.56058 375.046C-2.8589 330.858 -2.504 284.819 8.59544 240.797C12.4851 225.703 17.8473 211.027 24.605 196.979C53.8664 136.467 107.237 95.8461 171.033 85.5341C171.559 85.4659 172.092 85.4545 172.622 85.5002C172.908 85.5156 173.194 85.532 173.486 85.5198L173.861 85.4007C174.824 85.0667 175.812 84.8134 176.816 84.6434C275.206 70.0158 379.218 99.6125 477.6 170.232C553.669 224.842 654.482 254.248 785.801 260.132L787.665 260.229C824.221 262.326 859.582 277.377 889.928 303.757C919.881 329.793 942.37 364.53 954.965 404.215C956.513 409.053 957.933 414.089 959.183 419.183C960.348 423.917 960.266 428.871 958.945 433.564C957.624 438.256 955.109 442.527 951.645 445.962V445.971L951.318 446.307C950.531 447.089 949.703 447.839 948.856 448.537L947.86 449.356C939.468 456.26 932.84 461.714 924.907 465.949C919.616 468.755 913.989 470.877 908.161 472.263C876.16 480.054 843.663 487.278 811.572 493.734C749.249 506.283 685.285 516.635 621.455 524.502C521.387 536.824 420.656 543.002 319.83 543ZM171.875 87.6435C171.679 87.6416 171.484 87.6549 171.29 87.6832C108.09 97.8988 55.2251 138.12 26.2538 198.034C19.5628 211.943 14.2537 226.474 10.4027 241.417C-0.595639 285.049 -0.946125 330.68 9.38068 374.475C14.9117 398.513 24.1145 421.557 36.6659 442.799C55.442 474.131 80.0472 498.822 107.822 514.204C147.587 536.229 190.553 537.77 232.105 539.259C362.065 543.896 492.188 538.241 621.253 522.345C685.042 514.483 748.965 504.138 811.247 491.597C843.316 485.146 875.791 477.927 907.77 470.14C913.457 468.789 918.949 466.719 924.112 463.981C931.885 459.832 938.45 454.43 946.762 447.592L947.758 446.773C948.486 446.173 949.201 445.531 949.884 444.863L950.081 444.658C956.911 437.783 959.567 428.712 957.368 419.773V419.772C956.13 414.732 954.726 409.75 953.193 404.962C927.465 323.893 860.908 266.602 787.575 262.396L785.721 262.299C725.736 259.611 673.245 252.165 625.255 239.533C567.966 224.455 517.952 201.757 476.601 172.071C378.594 101.723 275.017 72.2363 177.057 86.7945C176.142 86.9522 175.241 87.1853 174.365 87.4915L173.688 87.6805C173.304 87.6977 172.919 87.6931 172.535 87.6667C172.309 87.6551 172.09 87.6435 171.875 87.6435H171.875Z" fill="#F0F0F0"/>
<path d="M302.983 214.5C300.278 211.901 297.51 197.409 294.056 195.938C296.638 201.651 294.763 203.163 294.75 209.433C294.782 212.994 294.367 216.544 293.514 220H235V174.281C235 170.173 235.808 166.106 237.378 162.31C238.948 158.515 241.25 155.067 244.151 152.162C247.053 149.257 250.497 146.953 254.288 145.381C258.079 143.809 262.142 143 266.245 143C267.811 143.031 269.367 143.259 270.876 143.679C275.905 145.038 280.489 147.698 284.168 151.391C287.847 155.084 290.491 159.681 291.835 164.72C296.295 181.043 303.39 208.215 302.983 214.5Z" fill="#2F2E41"/>
<path d="M238.971 271.509L239 236L217.997 237.865L225.409 260.261L221.94 316.552C220.258 316.928 218.721 317.781 217.519 319.009C216.316 320.237 215.499 321.787 215.166 323.468C214.834 325.15 215.002 326.891 215.648 328.48C216.295 330.069 217.392 331.436 218.807 332.416C220.222 333.395 221.893 333.944 223.617 333.996C225.34 334.048 227.042 333.6 228.514 332.708C229.986 331.815 231.165 330.516 231.907 328.969C232.649 327.422 232.922 325.694 232.693 323.996L238.971 271.509Z" fill="#FFB6B6"/>
<path d="M280.002 527L288.132 526.999L292 494H280L280.002 527Z" fill="#FFB6B6"/>
<path d="M276.725 522.759L290.409 522V527.448L303.419 535.797C304.061 536.209 304.545 536.801 304.8 537.487C305.054 538.173 305.066 538.917 304.834 539.61C304.602 540.303 304.137 540.908 303.508 541.338C302.879 541.768 302.119 542 301.338 542H285.047L282.239 536.611L281.142 542H275L276.725 522.759Z" fill="#2F2E41"/>
<path d="M231.001 527L239.133 526.999L243 494H231L231.001 527Z" fill="#FFB6B6"/>
<path d="M227.725 522.759L241.409 522V527.448L254.419 535.797C255.061 536.209 255.545 536.801 255.8 537.487C256.054 538.173 256.066 538.917 255.834 539.61C255.602 540.303 255.137 540.908 254.508 541.338C253.879 541.768 253.119 542 252.338 542H236.047L233.239 536.611L232.142 542H226L227.725 522.759Z" fill="#2F2E41"/>
<path d="M272.723 197L255.19 197.347L242.814 210.531L232.892 211.999C228.404 212.664 224.278 214.863 221.203 218.229C218.129 221.594 216.292 225.923 216 230.492L217.719 240.021H228.032L233.998 275.373C231.678 281.339 231.521 286.048 236.283 287.898L251.065 316L294.724 296.225C296.938 292.383 297.648 288.525 295.384 284.772L298.505 230.653H309C309 220.531 305.608 211.998 295.64 210.872C291.682 210.439 287.704 210.21 283.723 210.184L272.723 197Z" fill="#E6E6E6"/>
<path d="M293.628 296.232C293.628 296.232 251.11 303.778 235.337 288C235.337 288 233.736 290.719 231.323 295.229C230.629 296.526 229.289 297.405 228.479 298.976C227.744 300.403 225.852 302.159 225.05 303.778C224.406 305.081 225.44 306.783 224.769 308.19C216.692 325.138 207.254 349.044 209.277 364.829C210.582 375.009 213.277 398.697 216.115 424.138C216.337 426.126 214.541 428.679 214.764 430.683C214.974 432.572 217.203 433.911 217.413 435.805C217.553 437.062 215.996 438.345 216.135 439.601C216.288 440.978 218.137 442.329 218.288 443.702C222.176 478.831 225.736 511.628 225.736 511.628H245.624L249.376 436.722L246.31 409.418L253.51 354.197L263.454 406.674L264.733 436.208L275.242 513H293.628V438.661L295 434.799L293.628 429.846L295 424.509L293.628 418.697V296.232Z" fill="#2F2E41"/>
<path d="M277.982 187.029C275.249 190.659 271.36 193.251 266.957 194.377C262.554 195.502 257.898 195.095 253.757 193.222C249.616 191.349 246.237 188.121 244.176 184.071C242.114 180.021 241.494 175.39 242.417 170.94C243.339 166.49 245.75 162.487 249.252 159.59C252.754 156.693 257.138 155.075 261.682 155.003C266.226 154.93 270.66 156.407 274.253 159.19C277.845 161.974 280.383 165.897 281.447 170.315C281.505 170.555 281.554 170.793 281.601 171.041C282.163 173.81 282.131 176.667 281.507 179.423C280.884 182.179 279.682 184.771 277.982 187.029Z" fill="#FFB6B6"/>
<path d="M273.99 176.412C273.558 174.141 272.465 172.065 270.86 170.471C271.019 172.648 270.73 174.835 270.014 176.885C264.655 177.382 259.273 176.265 254.499 173.667C250.904 171.113 246.329 171.334 241 173.667C241 170.953 241.51 168.265 242.502 165.758C243.494 163.25 244.947 160.972 246.78 159.053C248.613 157.133 250.789 155.611 253.184 154.573C255.579 153.534 258.146 153 260.738 153H264.262C269.497 153.001 274.517 155.179 278.218 159.054C281.919 162.93 283.999 168.186 284 173.667C280.747 174.888 277.397 175.807 273.99 176.412Z" fill="#2F2E41"/>
<path d="M122.5 421C153.152 421 178 396.152 178 365.5C178 334.848 153.152 310 122.5 310C91.8482 310 67 334.848 67 365.5C67 396.152 91.8482 421 122.5 421Z" fill="#F0F0F0"/>
<path d="M397 175C427.376 175 452 150.152 452 119.5C452 88.8483 427.376 64.0001 397 64.0001C366.624 64.0001 342 88.8483 342 119.5C342 150.152 366.624 175 397 175Z" fill="#F0F0F0"/>
<path d="M265.208 350H119.793C117.728 349.995 115.749 349.176 114.289 347.724C112.828 346.271 112.006 344.302 112 342.248V271.754C112.005 269.699 112.828 267.73 114.288 266.277C115.748 264.824 117.727 264.006 119.792 264H265.207C267.272 264.005 269.251 264.824 270.711 266.277C272.172 267.729 272.994 269.698 273 271.753V342.247C272.995 344.301 272.172 346.27 270.712 347.723C269.252 349.176 267.273 349.995 265.208 350Z" fill="white"/>
<path d="M265.208 350H119.793C117.728 349.995 115.749 349.176 114.289 347.724C112.828 346.271 112.006 344.302 112 342.248V271.754C112.005 269.699 112.828 267.73 114.288 266.277C115.748 264.824 117.727 264.006 119.792 264H265.207C267.272 264.005 269.251 264.824 270.711 266.277C272.172 267.729 272.994 269.698 273 271.753V342.247C272.995 344.301 272.172 346.27 270.712 347.723C269.252 349.176 267.273 349.995 265.208 350ZM119.793 266.163C118.304 266.167 116.877 266.758 115.824 267.806C114.771 268.853 114.178 270.273 114.174 271.755V342.247C114.178 343.728 114.772 345.148 115.825 346.196C116.878 347.243 118.305 347.833 119.794 347.837H265.206C266.695 347.833 268.122 347.243 269.176 346.195C270.229 345.147 270.822 343.727 270.826 342.246V271.754C270.822 270.272 270.228 268.852 269.175 267.805C268.122 266.757 266.695 266.167 265.206 266.163L119.793 266.163Z" fill="#3F3D56"/>
<path d="M199.741 340C171.257 340 141.555 339.725 130.473 339.546C129.015 339.516 127.626 338.91 126.604 337.858C125.581 336.807 125.006 335.392 125 333.917V274.996C125.001 274.467 125.208 273.961 125.577 273.587C125.946 273.213 126.446 273.002 126.968 273H257.027C257.549 273.001 258.05 273.21 258.42 273.583C258.789 273.956 258.998 274.462 259 274.99V314.968C258.976 321.493 256.424 327.749 251.891 332.394C247.359 337.038 241.208 339.701 234.757 339.811C224.428 339.947 212.198 340 199.741 340Z" fill="#246DA8"/>
<path d="M249.042 311H131.133C130.146 310.997 129.184 310.692 128.377 310.126C127.57 309.56 126.958 308.76 126.623 307.836L113.278 270.572C113.021 269.853 112.94 269.084 113.044 268.328C113.148 267.572 113.432 266.852 113.873 266.228C114.314 265.604 114.9 265.095 115.58 264.742C116.26 264.39 117.015 264.206 117.781 264.204L265.165 264C265.865 263.999 266.557 264.152 267.192 264.446C267.828 264.74 268.39 265.17 268.84 265.704C269.29 266.238 269.617 266.865 269.798 267.538C269.979 268.212 270.009 268.917 269.886 269.603L270 269.651L269.577 270.634L269.573 270.644L253.44 308.111C253.072 308.969 252.459 309.7 251.677 310.214C250.895 310.728 249.979 311.001 249.042 311ZM265.171 266.156L117.785 266.36C117.365 266.361 116.952 266.462 116.579 266.655C116.207 266.848 115.886 267.127 115.644 267.469C115.403 267.81 115.247 268.205 115.19 268.619C115.133 269.033 115.177 269.454 115.318 269.848L128.663 307.11C128.846 307.617 129.182 308.055 129.624 308.365C130.067 308.675 130.594 308.842 131.135 308.844H249.042C249.555 308.844 250.056 308.695 250.484 308.414C250.912 308.132 251.247 307.732 251.448 307.263L267.582 269.795L268.375 270.133L267.582 269.795C267.753 269.398 267.822 268.964 267.784 268.534C267.745 268.104 267.6 267.69 267.361 267.329C267.122 266.969 266.797 266.673 266.415 266.468C266.033 266.263 265.605 266.156 265.171 266.156Z" fill="#3F3D56"/>
<path d="M192 319C196.971 319 201 314.971 201 310C201 305.03 196.971 301 192 301C187.029 301 183 305.03 183 310C183 314.971 187.029 319 192 319Z" fill="white"/>
<path d="M308.971 262.836L309 227L287.748 228.883L295.248 251.484L268.023 292.392C266.32 292.771 264.765 293.632 263.548 294.872C262.331 296.111 261.504 297.674 261.168 299.371C260.832 301.068 261.002 302.826 261.656 304.429C262.31 306.032 263.421 307.413 264.852 308.401C266.284 309.389 267.975 309.944 269.719 309.996C271.463 310.048 273.185 309.597 274.674 308.696C276.164 307.795 277.357 306.484 278.107 304.923C278.858 303.362 279.135 301.618 278.903 299.904L308.971 262.836Z" fill="#FFB6B6"/>
<path d="M67.9543 483.784C68.1552 483.777 68.4175 483.748 68.7303 483.703C69.042 483.637 69.4092 483.581 69.7972 483.453C70.5803 483.223 71.4753 482.817 72.3304 482.238C73.1877 481.664 74.0019 480.928 74.7152 480.15C75.4283 479.371 76.0464 478.556 76.5589 477.823C77.1545 476.979 77.7002 476.091 78.2616 475.211L79.0774 473.88L79.8738 472.541C80.9228 470.752 81.9173 468.939 82.8576 467.107C84.7382 463.444 86.4077 459.705 87.8634 455.913C88.0853 455.318 88.385 454.516 88.6575 453.874C88.9319 453.233 89.204 452.757 89.4032 452.822C89.8133 452.959 89.6263 454.399 88.8408 456.491C87.8836 459.019 86.813 461.522 85.6474 463.99C84.4798 466.457 83.2288 468.89 81.9285 471.293C80.9726 473.048 79.9546 474.777 78.8781 476.481C77.8151 478.187 76.6496 479.895 75.1337 481.411C74.3736 482.165 73.5216 482.871 72.5432 483.452C71.5685 484.033 70.4614 484.483 69.287 484.713C68.7056 484.846 68.0929 484.894 67.4948 484.896C66.8929 484.896 66.2938 484.846 65.7102 484.732C65.1287 484.619 64.5579 484.462 64.0165 484.251C63.4769 484.037 62.9613 483.778 62.4813 483.475C62.0523 483.201 61.659 482.885 61.2967 482.546C60.947 482.195 60.6284 481.821 60.367 481.419C59.8462 480.613 59.5144 479.722 59.3922 478.808C59.3292 478.352 59.3114 477.889 59.3564 477.428C59.3685 477.197 59.4129 476.969 59.4497 476.74C59.5057 476.513 59.5482 476.283 59.629 476.061C59.7658 475.611 59.9717 475.176 60.2183 474.755C60.4706 474.333 60.7793 473.937 61.1396 473.581C61.8582 472.866 62.7455 472.287 63.7163 471.877C64.687 471.466 65.7358 471.198 66.8072 471.1C67.8766 471.001 68.9717 471.058 70.0133 471.318C71.0528 471.573 72.046 472.023 72.8374 472.673C73.5693 473.276 74.1594 473.994 74.5838 474.774C75.0101 475.553 75.2741 476.384 75.428 477.216C75.7342 478.89 75.6098 480.57 75.3461 482.203C75.2793 482.613 75.2009 483.019 75.1129 483.422L74.8312 484.624C74.7335 485.024 74.6531 485.428 74.54 485.825L74.199 487.017L74.0284 487.613C73.9729 487.812 73.9153 488.01 73.8463 488.206L73.4475 489.385L73.2482 489.975L73.1485 490.27L73.0354 490.562L72.5769 491.726C70.4242 497.076 67.337 502.148 63.5266 506.775C63.3022 507.047 63.0869 507.346 62.8369 507.636C62.5929 507.93 62.3398 508.233 62.0868 508.537C61.832 508.843 61.5794 509.154 61.3169 509.457C61.0464 509.755 60.7757 510.049 60.5065 510.333C60.2838 510.568 60.0255 510.843 59.7472 511.136C59.4689 511.43 59.149 511.725 58.8409 512.03C58.5289 512.331 58.2169 512.632 57.9247 512.914C57.6345 513.198 57.3363 513.44 57.0937 513.656C56.6675 514.023 56.223 514.402 55.8278 514.78C53.9372 516.459 53.319 516.788 53.6336 515.944C53.7013 515.759 53.442 515.809 53.855 515.375C53.8711 515.357 53.9052 515.321 53.9215 515.305C54.2219 514.966 54.5422 514.641 54.8763 514.328C55.2083 514.011 55.5343 513.686 55.8781 513.377C56.2199 513.064 56.5714 512.754 56.9209 512.445C57.2565 512.123 57.594 511.801 57.9254 511.473C61.1903 508.257 64.0025 504.716 66.4177 501.002C66.7188 500.535 66.9947 500.061 67.2842 499.59L67.7145 498.883C67.8592 498.648 67.9826 498.405 68.1176 498.165L68.9122 496.724C69.1667 496.239 69.3999 495.747 69.6467 495.26L70.011 494.527C70.1305 494.282 70.2345 494.031 70.3463 493.785L71.0073 492.296C71.2116 491.796 71.4022 491.291 71.6026 490.788L71.8973 490.033C71.9898 489.78 72.0727 489.525 72.1594 489.27L72.4784 488.334C72.5828 488.021 72.6988 487.712 72.7839 487.394L73.3354 485.501C73.4981 484.867 73.6455 484.23 73.8006 483.594C73.965 482.957 74.0785 482.324 74.1823 481.689C74.2823 481.053 74.3424 480.417 74.376 479.782C74.3945 479.15 74.3807 478.517 74.3068 477.896C74.2216 477.278 74.0932 476.668 73.8791 476.087C73.6557 475.51 73.3671 474.957 72.9885 474.459C72.767 474.195 72.5455 473.931 72.2748 473.704L72.0809 473.526L71.8728 473.369C71.8053 473.314 71.7306 473.268 71.6577 473.22C71.583 473.174 71.5135 473.119 71.4353 473.078C71.1328 472.895 70.8017 472.744 70.4638 472.608C70.1205 472.476 69.7616 472.374 69.3941 472.285L69.419 472.29C67.858 471.978 66.153 472.159 64.664 472.709C63.2508 473.225 62.0073 474.132 61.3401 475.299C60.662 476.475 60.4744 477.869 60.7822 479.154C60.8512 479.476 60.9671 479.79 61.0941 480.096C61.2378 480.397 61.389 480.695 61.5845 480.97C61.966 481.523 62.449 482.019 63.0294 482.421C63.6061 482.826 64.2563 483.151 64.9452 483.386C65.6359 483.617 66.3631 483.755 67.0871 483.798C67.1443 483.801 67.2071 483.804 67.2738 483.807C67.3401 483.805 67.4103 483.803 67.4843 483.802C67.6267 483.802 67.7879 483.798 67.9543 483.784Z" fill="black"/>
<path d="M400.14 403.611C399.9 403.989 399.496 404.601 398.906 405.293C398.316 405.985 397.539 406.744 396.638 407.458C395.736 408.173 394.706 408.827 393.669 409.387C392.629 409.94 391.583 410.399 390.652 410.756C388.489 411.561 386.26 412.173 383.994 412.574C381.729 412.977 379.438 413.194 377.148 413.277C372.565 413.442 368 413.089 363.482 412.598C362.068 412.443 359.668 412.185 359.746 411.913C359.826 411.627 361.45 411.639 363.909 411.892C366.884 412.192 369.87 412.452 372.858 412.539C375.843 412.617 378.831 412.519 381.765 412.12C383.907 411.819 386.026 411.374 388.09 410.748C389.125 410.444 390.143 410.091 391.131 409.672C392.121 409.255 393.088 408.789 394.007 408.244C394.926 407.699 395.808 407.093 396.614 406.4C397.42 405.706 398.164 404.943 398.795 404.096C399.426 403.247 399.96 402.326 400.371 401.354C400.772 400.379 401.05 399.355 401.172 398.313C401.275 397.378 401.245 396.428 401.068 395.511C400.891 394.596 400.554 393.71 400.089 392.898C399.625 392.085 399.021 391.35 398.318 390.738C397.614 390.125 396.805 389.636 395.932 389.329C395.826 389.283 395.713 389.255 395.602 389.225L395.269 389.133C395.044 389.083 394.816 389.05 394.589 389.01C394.136 388.956 393.676 388.961 393.22 389.017C392.309 389.13 391.419 389.454 390.633 389.941C389.849 390.426 389.156 391.071 388.655 391.837C388.151 392.599 387.836 393.482 387.805 394.383C387.766 395.234 387.973 396.081 388.369 396.831C388.78 397.575 389.368 398.23 390.068 398.741C391.468 399.771 393.237 400.309 394.977 400.316C395.413 400.313 395.848 400.286 396.276 400.213C396.703 400.138 397.124 400.035 397.528 399.889C397.93 399.747 398.319 399.533 398.713 399.342L399.276 399L399.416 398.915C399.463 398.886 399.506 398.851 399.551 398.82L399.819 398.627C400.527 398.107 401.184 397.509 401.76 396.835C401.913 396.674 402.048 396.498 402.186 396.323C402.323 396.148 402.466 395.979 402.591 395.793L402.976 395.246L403.334 394.679C403.441 394.519 403.531 394.347 403.628 394.181C403.723 394.012 403.822 393.847 403.912 393.675C404.086 393.329 404.273 392.991 404.433 392.636C404.515 392.46 404.599 392.284 404.678 392.108L404.907 391.572C404.986 391.394 405.057 391.213 405.127 391.031L405.339 390.487L405.536 389.937C405.603 389.753 405.667 389.569 405.726 389.383L405.909 388.826L406.076 388.263C406.186 387.886 406.3 387.512 406.407 387.135L406.702 385.996C407.075 384.474 407.399 382.935 407.619 381.382L407.707 380.8C407.737 380.606 407.754 380.41 407.779 380.216L407.916 379.046L408.013 377.873C408.027 377.677 408.049 377.482 408.057 377.286L408.085 376.698C408.098 376.328 408.123 375.939 408.124 375.539C408.123 375.138 408.121 374.727 408.12 374.311C408.122 374.103 408.113 373.894 408.105 373.684C408.097 373.474 408.09 373.265 408.083 373.056C408.076 372.847 408.069 372.639 408.064 372.432C408.052 372.226 408.04 372.021 408.028 371.819C408.009 371.485 407.991 371.094 407.963 370.676C407.926 370.259 407.886 369.814 407.848 369.37C407.831 369.147 407.804 368.926 407.778 368.709C407.752 368.492 407.727 368.276 407.702 368.07C407.678 367.862 407.655 367.662 407.633 367.473C407.606 367.283 407.581 367.105 407.557 366.941C407.474 366.374 407.402 365.781 407.275 365.234C407.139 364.602 407.04 364.086 406.946 363.683C406.86 363.279 406.809 362.982 406.795 362.787C406.765 362.397 406.877 362.414 407.131 362.8C407.243 362.97 407.281 362.733 407.472 363.337C407.48 363.362 407.495 363.412 407.503 363.435C408.117 365.264 408.358 367.232 408.572 369.201C409.088 374.042 408.891 378.958 407.992 383.744C407.964 383.893 407.939 384.044 407.909 384.193L407.813 384.639L407.621 385.532C407.562 385.832 407.479 386.124 407.407 386.42L407.185 387.306C407.024 387.893 406.85 388.476 406.682 389.063L406.402 389.935L406.098 390.799C405.675 391.947 405.186 393.074 404.602 394.157C404.019 395.239 403.341 396.278 402.537 397.224L402.156 397.649L401.964 397.861L401.759 398.061L401.348 398.46C401.206 398.587 401.056 398.708 400.912 398.832C400.627 399.088 400.305 399.299 399.995 399.525C399.919 399.584 399.837 399.633 399.755 399.682L399.508 399.83L399.261 399.979C399.179 400.028 399.097 400.079 399.009 400.118L398.491 400.373C398.323 400.463 398.139 400.533 397.957 400.606C397.775 400.681 397.587 400.733 397.402 400.796C397.213 400.843 397.026 400.9 396.834 400.938C396.072 401.098 395.292 401.159 394.519 401.113C393.746 401.067 392.98 400.931 392.241 400.703C391.503 400.471 390.79 400.155 390.128 399.743C389.473 399.324 388.859 398.823 388.358 398.214L388.173 397.983C388.112 397.905 388.059 397.822 388.002 397.74C387.884 397.581 387.791 397.405 387.688 397.234C387.505 396.882 387.336 396.517 387.231 396.131C387.199 396.027 387.167 395.922 387.146 395.814L387.077 395.494C387.052 395.277 387.01 395.061 387.007 394.841C386.977 394.405 387.004 393.959 387.086 393.526C387.248 392.659 387.626 391.836 388.155 391.135L388.137 391.159C388.672 390.412 389.352 389.78 390.12 389.286C390.888 388.793 391.747 388.437 392.651 388.259C393.501 388.088 394.41 388.088 395.266 388.275C396.124 388.451 396.949 388.785 397.695 389.238C399.19 390.147 400.376 391.508 401.139 393.057C401.522 393.833 401.79 394.663 401.937 395.512C402.083 396.359 402.112 397.214 402.043 398.055C401.905 399.738 401.386 401.345 400.621 402.762C400.565 402.877 400.493 403.008 400.413 403.151C400.323 403.295 400.242 403.455 400.14 403.611Z" fill="black"/>
<path d="M362.177 523.016C362.314 522.021 362.462 521.025 362.61 520.029C362.7 519.419 362.841 518.816 362.848 518.192C362.848 518.021 362.767 517.837 362.861 517.679V517.682C362.865 517.501 362.848 517.317 362.881 517.143C363.006 516.479 363.063 515.771 363.244 515.144C363.251 515.121 363.224 515.081 363.23 515.044C363.264 514.866 363.412 514.246 363.472 513.844C363.613 512.908 363.781 511.98 364.183 511.091C364.247 510.954 364.824 508.952 365.569 509.09C366.348 509.234 366.241 511.232 366.167 511.48C365.989 512.08 365.7 512.664 365.727 513.297C365.767 514.223 365.502 515.094 365.385 515.993C365.281 516.797 365.096 517.592 364.999 518.4C364.905 519.158 364.942 519.939 364.804 520.69C364.683 521.337 364.375 521.95 364.19 522.587C364.147 522.738 364.254 522.946 364.21 523.11C364.177 523.248 364.13 523.476 364.039 523.603C364.002 523.657 363.955 523.714 363.972 523.774C364.053 524.062 363.479 526.185 362.576 526.007C361.693 525.829 362.056 523.881 362.177 523.016Z" fill="black"/>
<path d="M368.606 517.25C368.851 516.358 369.106 515.469 369.361 514.581C369.519 514.034 369.724 513.505 369.798 512.935C369.818 512.777 369.757 512.596 369.868 512.465V512.469C369.892 512.305 369.895 512.134 369.945 511.976C370.14 511.386 370.274 510.749 370.523 510.202C370.533 510.182 370.509 510.139 370.519 510.109C370.573 509.951 370.784 509.404 370.888 509.046C371.13 508.211 371.395 507.386 371.892 506.632C371.969 506.515 372.757 504.768 373.479 505.003C374.231 505.247 373.908 507.061 373.808 507.279C373.566 507.802 373.217 508.295 373.174 508.878C373.113 509.733 372.757 510.491 372.543 511.292C372.351 512.013 372.086 512.714 371.898 513.438C371.724 514.118 371.674 514.836 371.455 515.503C371.264 516.076 370.895 516.593 370.643 517.149C370.583 517.28 370.667 517.484 370.606 517.632C370.556 517.753 370.486 517.954 370.385 518.058C370.341 518.101 370.288 518.145 370.298 518.205C370.345 518.48 369.549 520.337 368.674 520.042C367.821 519.754 368.395 518.024 368.606 517.25Z" fill="black"/>
<path d="M374.879 512.596C375.322 511.486 375.809 510.39 376.346 509.32C376.668 508.66 377.06 508.036 377.339 507.349C377.416 507.161 377.423 506.93 377.584 506.789L377.58 506.792C377.668 506.595 377.731 506.383 377.849 506.206C378.278 505.522 378.688 504.781 379.181 504.177C379.201 504.154 379.195 504.1 379.221 504.063C379.349 503.892 379.805 503.279 380.097 502.887C380.745 501.958 381.46 501.076 382.366 500.369C382.436 500.312 382.919 499.856 383.453 499.484C384 499.118 384.591 498.84 384.862 499.105C385.148 499.38 384.946 499.98 384.651 500.53C384.366 501.09 383.983 501.606 383.879 501.71C383.624 501.961 383.349 502.193 383.091 502.444C382.839 502.699 382.611 502.974 382.446 503.296C381.976 504.238 381.282 505.009 380.742 505.891L379.997 507.067C379.745 507.456 379.507 507.855 379.292 508.264C378.882 509.035 378.617 509.877 378.211 510.641C377.866 511.302 377.356 511.885 376.983 512.542C376.896 512.696 376.929 512.945 376.842 513.119C376.768 513.263 376.658 513.504 376.537 513.625C376.483 513.675 376.423 513.729 376.423 513.799C376.416 513.964 376.141 514.607 375.758 515.171C375.389 515.737 374.913 516.23 374.48 516.073C374.057 515.915 374.054 515.288 374.198 514.574C374.278 514.219 374.396 513.846 374.517 513.498C374.651 513.152 374.785 512.837 374.879 512.596Z" fill="black"/>
</svg>
