<svg width="344" height="305" viewBox="0 0 344 305" fill="none" xmlns="http://www.w3.org/2000/svg">
<path d="M264.064 19.2913C264.464 18.8116 264.873 18.3337 265.282 17.8602C265.534 17.569 265.818 17.3094 266.01 16.9649C266.063 16.8695 266.057 16.7234 266.173 16.6866L266.17 16.6883C266.228 16.5895 266.269 16.4759 266.348 16.3972C266.639 16.0961 266.893 15.7307 267.216 15.4792C267.228 15.4681 267.221 15.4326 267.236 15.4155C267.314 15.3368 267.611 15.0686 267.776 14.8768C268.161 14.4324 268.564 14.0028 269.132 13.7237C269.221 13.6788 270.251 12.874 270.767 13.3445C271.304 13.8376 270.628 14.8934 270.498 14.9905C270.185 15.2283 269.794 15.4021 269.626 15.7676C269.379 16.3042 268.922 16.6476 268.566 17.0846C268.246 17.477 267.873 17.8221 267.559 18.2181C267.264 18.5908 267.057 19.0432 266.728 19.3862C266.445 19.6822 266.03 19.8602 265.702 20.1151C265.624 20.1756 265.642 20.3469 265.561 20.416C265.495 20.4724 265.392 20.5776 265.286 20.6006C265.24 20.6114 265.191 20.6169 265.185 20.6609C265.159 20.8637 264.095 21.7408 263.474 21.162C262.862 20.599 263.717 19.7076 264.064 19.2913Z" fill="black"/>
<path d="M270.571 25.9258C271.009 25.6236 271.447 25.3284 271.889 25.0341C272.16 24.8555 272.455 24.7135 272.685 24.4653C272.747 24.3969 272.771 24.2614 272.881 24.2686C272.95 24.1994 273.006 24.1092 273.087 24.0652C273.397 23.8878 273.683 23.6446 274.009 23.5228C274.021 23.5186 274.021 23.4823 274.037 23.4721C274.121 23.4263 274.425 23.2818 274.606 23.1636C275.023 22.8889 275.449 22.6342 275.989 22.5708C276.073 22.5613 277.11 22.1723 277.469 22.775C277.84 23.3986 277.058 24.1308 276.93 24.1787C276.616 24.2895 276.245 24.3158 276.032 24.5926C275.719 24.9955 275.259 25.1548 274.87 25.4332C274.52 25.6835 274.134 25.8695 273.79 26.1234C273.466 26.3611 273.201 26.7039 272.854 26.905C272.552 27.0773 272.164 27.0999 271.833 27.2251C271.753 27.2537 271.739 27.416 271.656 27.4505C271.587 27.4792 271.479 27.5403 271.387 27.5254C271.345 27.519 271.3 27.5072 271.286 27.5451C271.224 27.7199 270.147 28.1595 269.717 27.4264C269.288 26.7115 270.191 26.1879 270.571 25.9258Z" fill="black"/>
<path d="M275.891 34.9586C276.53 34.7597 277.171 34.566 277.812 34.3767C278.204 34.2599 278.609 34.1907 278.982 33.9951C279.083 33.9417 279.167 33.8121 279.292 33.8428L279.289 33.8445C279.398 33.7904 279.502 33.7172 279.619 33.6873C280.054 33.5839 280.496 33.4072 280.926 33.3616C280.943 33.3583 280.958 33.3231 280.982 33.319C281.097 33.2934 281.514 33.2201 281.777 33.1417C282.38 32.9649 282.987 32.8115 283.646 32.873C283.749 32.881 285.128 32.7401 285.288 33.4211C285.451 34.1324 284.228 34.6793 284.056 34.693C283.64 34.7327 283.199 34.6718 282.831 34.8934C282.291 35.2238 281.687 35.2736 281.115 35.4593C280.601 35.6276 280.07 35.7221 279.558 35.8956C279.077 36.0572 278.622 36.3376 278.13 36.4585C277.706 36.562 277.242 36.494 276.803 36.5377C276.7 36.5478 276.61 36.7033 276.498 36.7228C276.406 36.7374 276.254 36.7712 276.152 36.7338C276.108 36.7178 276.06 36.6965 276.027 36.7325C275.881 36.8943 274.432 37.0793 274.245 36.2477C274.059 35.4411 275.339 35.1324 275.891 34.9586Z" fill="black"/>
<path d="M62.6244 5.38569C62.7731 6.2458 62.9136 7.10378 63.0518 7.96453C63.1337 8.49259 63.166 9.02627 63.3445 9.54588C63.3915 9.68746 63.5351 9.82058 63.4807 9.97615L63.4831 9.97338C63.531 10.1254 63.6075 10.2731 63.624 10.427C63.6896 11.0085 63.8356 11.6063 63.8313 12.171C63.8308 12.1947 63.8727 12.221 63.8755 12.2524C63.892 12.4063 63.9206 12.956 63.9759 13.3071C64.1042 14.1159 64.201 14.9266 64.0371 15.7636C64.0094 15.8939 63.993 17.6961 63.1574 17.7675C62.2879 17.8436 61.8074 16.1633 61.8109 15.9399C61.8252 15.3982 61.9566 14.8415 61.7391 14.3269C61.4209 13.5715 61.4445 12.7824 61.3014 12.0139C61.1731 11.3206 61.1309 10.6194 60.9973 9.92644C60.8704 9.27769 60.5997 8.64024 60.5246 7.98311C60.4604 7.41723 60.6051 6.83348 60.6113 6.26071C60.6124 6.12674 60.4388 5.9823 60.4332 5.83298C60.43 5.70977 60.4092 5.50885 60.4688 5.38185C60.4955 5.32772 60.527 5.26806 60.4913 5.22295C60.3217 5.00476 60.3005 3.1077 61.3141 3.02553C62.3035 2.93695 62.4966 4.63984 62.6244 5.38569Z" fill="black"/>
<path d="M53.8301 14.8088C54.2141 15.3606 54.5933 15.918 54.9673 16.4757C55.1983 16.8188 55.3816 17.1885 55.6897 17.4823C55.7734 17.5639 55.9394 17.5959 55.9383 17.7299C56.0253 17.8192 56.1371 17.8912 56.1965 17.9953C56.4236 18.3833 56.7331 18.7506 56.8935 19.1584C56.9002 19.1737 56.9449 19.1737 56.9549 19.1967C57.0143 19.3008 57.2014 19.6833 57.3535 19.9104C57.7037 20.4381 58.0311 20.975 58.1285 21.6465C58.1432 21.7506 58.6555 23.0535 57.9404 23.4695C57.1953 23.9031 56.2735 22.9032 56.209 22.7417C56.0604 22.3489 56.0137 21.8896 55.6704 21.6136C55.1654 21.2083 54.9556 20.6328 54.6005 20.1396C54.2816 19.6967 54.0403 19.2098 53.7167 18.7724C53.4111 18.3603 52.9883 18.0208 52.7304 17.5821C52.5094 17.2043 52.4632 16.7213 52.3023 16.3083C52.2619 16.2109 52.0673 16.1833 52.0184 16.0786C51.979 15.9917 51.9034 15.8545 51.9169 15.7408C51.9231 15.6931 51.9336 15.6347 51.8898 15.6164C51.6744 15.5322 51.0969 14.1781 51.9705 13.6817C52.8261 13.1889 53.4974 14.33 53.8301 14.8088Z" fill="black"/>
<path d="M42.2006 22.3981C43.0391 22.8542 43.8705 23.3187 44.7047 23.7856C45.2174 24.0724 45.7001 24.4056 46.2581 24.6108C46.4103 24.6647 46.6111 24.6447 46.7138 24.7908L46.7109 24.7883C46.8717 24.8495 47.0439 24.8916 47.1885 24.9774C47.7321 25.3149 48.3442 25.5956 48.834 25.9783C48.8511 25.993 48.8997 25.977 48.933 25.9959C49.078 26.087 49.575 26.4324 49.9131 26.6221C50.695 27.0633 51.4631 27.5263 52.0963 28.2154C52.1957 28.3249 53.7582 29.5435 53.3327 30.2518C52.8914 30.99 51.1405 30.2502 50.9474 30.0938C50.4824 29.7228 50.0736 29.2459 49.4946 29.0708C48.6478 28.8147 47.9726 28.2726 47.215 27.8667C46.5348 27.5034 45.8957 27.0693 45.2108 26.7115C44.5701 26.3774 43.8537 26.1659 43.2378 25.7856C42.7056 25.458 42.2783 24.9508 41.7828 24.5632C41.6668 24.473 41.436 24.5106 41.3066 24.4186C41.1996 24.3411 41.0099 24.2212 40.9348 24.0892C40.9035 24.0334 40.8712 23.967 40.8079 23.9656C40.5148 23.9544 38.8466 22.7029 39.3665 21.8444C39.8735 21.0182 41.4729 22.0035 42.2006 22.3981Z" fill="black"/>
<g clip-path="url(#clip0_234_59)">
<path d="M248.162 86.654H222.966V46.5178L248.162 54.545V86.654Z" fill="#2F2E41"/>
<path d="M252.634 290.437L247.435 290.56L244.537 267.241L252.21 267.059L252.634 290.437Z" fill="#A0616A"/>
<path d="M234.796 301.266C234.796 302.143 235.419 302.854 236.188 302.854H246.509C246.509 302.854 247.524 298.778 251.665 297.024L251.951 302.854H257.275L256.63 293.48C256.63 293.48 258.054 288.466 255.096 285.902C252.138 283.339 254.534 283.696 254.534 283.696L253.371 277.894L245.325 278.839L245.266 287.945L241.362 296.985L235.636 299.809C235.126 300.06 234.796 300.633 234.796 301.266L234.796 301.266L234.796 301.266Z" fill="#2F2E41"/>
<path d="M225.987 290.437L220.788 290.56L217.889 267.241L225.562 267.059L225.987 290.437Z" fill="#A0616A"/>
<path d="M208.148 301.266C208.148 302.143 208.772 302.854 209.541 302.854H219.861C219.861 302.854 220.877 298.778 225.017 297.024L225.303 302.854H230.627L229.982 293.48C229.982 293.48 231.406 288.466 228.449 285.902C225.491 283.339 227.887 283.696 227.887 283.696L226.723 277.894L218.678 278.839L218.619 287.945L214.715 296.985L208.988 299.809C208.478 300.06 208.148 300.633 208.148 301.266L208.148 301.266L208.148 301.266Z" fill="#2F2E41"/>
<path d="M249.77 130.536L216.534 150.337L209.029 180.84L212.781 275.026H229.239L232.884 184.319L240.18 275.026H256.895L261.123 173.165C262.287 165.762 261.368 158.182 258.468 151.271L249.77 130.536V130.536V130.536Z" fill="#2F2E41"/>
<path d="M242.265 70.0643L228.327 68.994L224.575 76.4861L213.853 79.1619L211.173 112.341C216.475 126.094 219.804 139.236 216.534 150.337L257.275 148.196L250.473 129.835C250.473 129.835 250.306 123.044 254.058 113.947C257.811 104.849 251.914 81.3025 251.914 81.3025L243.337 79.1619L242.265 70.0644H242.265V70.0643Z" fill="#246DA8"/>
<path d="M148.418 82.971C149.775 83.013 151.03 82.7455 152.016 82.2663L164.919 83.4815L165.319 77.3352L152.187 76.7642C151.232 76.225 149.997 75.8805 148.64 75.8385C145.539 75.7426 142.976 77.2615 142.915 79.2311C142.854 81.2007 145.318 82.8751 148.418 82.971H148.418Z" fill="#A0616A"/>
<path d="M224.747 101.734C224.747 101.734 224.291 82.1542 219.989 79.2153C218.215 78.0032 190.936 77.7279 189.942 77.6251C183.813 76.991 179.452 74.562 174.292 74.2958C161.717 73.647 155.359 76.6934 155.359 76.6934L155.137 82.9797L224.747 101.734V101.734Z" fill="#246DA8"/>
<path d="M234.109 68.4868C240.255 68.4868 245.238 63.5126 245.238 57.3767C245.238 51.2408 240.255 46.2666 234.109 46.2666C227.962 46.2666 222.98 51.2408 222.98 57.3767C222.98 63.5126 227.962 68.4868 234.109 68.4868Z" fill="#A0616A"/>
<path d="M230.733 40.8331C228.339 42.3395 226.586 41.261 224.876 42.0207C221.536 43.5051 215.896 53.9306 216.404 58.2954C217.125 64.4771 219.401 64.7316 219.333 69.1667C219.224 76.2883 218.657 76.2588 220.118 78.7455C221.743 81.5112 230.946 80.7603 232.655 77.0097C232.992 76.2698 229.248 76.5608 225.111 66.8534C223.035 61.9823 224.398 57.5435 225.111 55.6153C225.278 55.1639 225.354 51.959 225.71 52.3146C228.834 55.4334 230.586 53.1536 232.472 52.892C236.343 52.355 239.259 55.4731 240.434 54.3537C241.308 53.5207 240.193 51.3183 240.617 51.1562C241.069 50.9834 242.565 53.3995 243.545 55.9981C244.177 57.6738 244.493 58.5117 244.46 59.4696C244.359 62.4276 243.604 70.8144 242.265 73.2752C239.374 78.5894 243.014 80.5946 245.284 80.2072C247.117 79.8942 255.223 81.1265 255.667 80.2322C256.062 79.4355 255.159 71.2404 254.21 63.6217C253.07 54.4645 248.5 46.0495 241.335 40.2202C240.914 39.8783 240.601 39.6438 240.434 39.5541C240.037 39.3419 235.945 37.2207 232.93 38.9147C231.82 39.5383 232 40.0358 230.733 40.8331L230.733 40.8331Z" fill="#2F2E41"/>
<path d="M91.7114 299.111L85.5366 299.11L82.5992 275.333L91.7126 275.334L91.7114 299.111Z" fill="#FFB6B6"/>
<path d="M70.5556 298.971C70.3634 299.294 70.2619 300.337 70.2619 300.713C70.2619 301.869 71.2002 302.805 72.3577 302.805H91.4805C92.2701 302.805 92.9102 302.166 92.9102 301.378V300.583C92.9102 300.583 93.8562 298.194 91.9086 295.25C91.9086 295.25 89.4879 297.556 85.8709 293.945L84.8043 292.016L77.0833 297.653L72.8037 298.179C71.8674 298.294 71.0373 298.161 70.5557 298.971H70.5556H70.5556Z" fill="#2F2E41"/>
<path d="M117.746 299.111L111.571 299.11L108.633 275.333L117.747 275.334L117.746 299.111Z" fill="#FFB6B6"/>
<path d="M96.5898 298.971C96.3975 299.294 96.2961 300.337 96.2961 300.713C96.2961 301.869 97.2344 302.805 98.3918 302.805H117.515C118.304 302.805 118.944 302.166 118.944 301.378V300.583C118.944 300.583 119.89 298.194 117.943 295.25C117.943 295.25 115.522 297.556 111.905 293.945L110.838 292.016L103.117 297.653L98.8379 298.179C97.9016 298.294 97.0715 298.161 96.5899 298.971H96.5898H96.5898Z" fill="#2F2E41"/>
<path d="M118.97 148.996L73.6707 148.476L68.9846 178.104L80.4396 280.503H95.4574L98.9239 185.121L105.172 282.322H120.549L127.561 171.607L118.97 148.996Z" fill="#2F2E41"/>
<path d="M311.015 295.027C312.091 295.094 312.685 293.76 311.871 292.982L311.79 292.661C311.801 292.635 311.812 292.61 311.823 292.584C312.91 289.994 316.597 290.012 317.676 292.606C318.633 294.907 319.852 297.213 320.152 299.647C320.287 300.721 320.226 301.815 319.987 302.87C322.23 297.978 323.411 292.637 323.411 287.265C323.411 285.915 323.337 284.566 323.186 283.219C323.061 282.118 322.89 281.024 322.668 279.939C321.467 274.078 318.867 268.495 315.118 263.831C313.315 262.848 311.812 261.31 310.904 259.467C310.578 258.802 310.322 258.087 310.201 257.359C310.406 257.385 310.974 254.266 310.82 254.075C311.106 253.642 311.617 253.427 311.93 253.004C313.482 250.902 315.622 251.269 316.739 254.125C319.125 255.328 319.148 257.321 317.684 259.239C316.752 260.458 316.624 262.109 315.807 263.415C315.891 263.522 315.979 263.627 316.063 263.734C317.604 265.708 318.938 267.83 320.062 270.059C319.744 267.582 320.213 264.597 321.013 262.673C321.923 260.481 323.629 258.635 325.132 256.74C326.937 254.463 330.637 255.457 330.955 258.342C330.958 258.37 330.961 258.398 330.964 258.426C330.741 258.552 330.522 258.685 330.309 258.826C329.091 259.631 329.512 261.516 330.955 261.738L330.988 261.743C330.907 262.545 330.769 263.341 330.567 264.123C332.495 271.565 328.334 274.275 322.392 274.397C322.261 274.464 322.133 274.531 322.002 274.595C322.604 276.287 323.085 278.022 323.441 279.782C323.761 281.336 323.983 282.907 324.107 284.485C324.262 286.476 324.248 288.477 324.08 290.464L324.09 290.394C324.517 288.205 325.708 286.16 327.436 284.744C330.012 282.632 333.65 281.854 336.428 280.157C337.765 279.34 339.479 280.396 339.245 281.943L339.234 282.018C338.82 282.185 338.417 282.38 338.027 282.598C337.803 282.724 337.585 282.858 337.371 282.999C336.153 283.803 336.574 285.688 338.017 285.91L338.05 285.915C338.074 285.919 338.094 285.922 338.117 285.925C337.408 287.607 336.419 289.169 335.181 290.515C333.976 297.011 328.8 297.627 323.263 295.735H323.26C322.654 298.367 321.77 300.939 320.633 303.39H311.25C311.217 303.286 311.186 303.178 311.156 303.074C312.024 303.128 312.898 303.078 313.752 302.92C313.056 302.067 312.36 301.208 311.664 300.355C311.647 300.338 311.634 300.321 311.62 300.305C311.267 299.868 310.911 299.435 310.557 298.999L310.557 298.998C310.535 297.658 310.696 296.323 311.015 295.027L311.015 295.027V295.027L311.015 295.027Z" fill="#F2F2F2"/>
<path d="M0 303.602C0 303.945 0.275978 304.22 0.619645 304.22H343.38C343.724 304.22 344 303.945 344 303.602C344 303.259 343.724 302.983 343.38 302.983H0.619645C0.275978 302.983 0 303.259 0 303.602Z" fill="#CCCCCC"/>
<path d="M103.61 71.287H87.4873L84.3447 77.5245L68.9846 84.5662L74.4517 124.826L70.2863 151.335H122.32L117.668 120.667L123.917 83.762L106.734 77.0047L103.61 71.287Z" fill="#E6E6E6"/>
<path d="M157.578 168.843C156.875 167.411 156.554 165.939 156.59 164.65L149.028 151.43L155.435 148.022L162.416 161.8C163.458 162.56 164.427 163.715 165.13 165.147C166.737 168.419 166.348 171.898 164.263 172.919C162.177 173.939 159.184 172.114 157.578 168.843V168.843H157.578Z" fill="#FFB6B6"/>
<path d="M107.734 81.9879C107.734 81.9879 112.835 76.7482 118.558 80.3945C124.28 84.0407 145.156 121.353 145.156 121.353L161.259 153.431L149.892 158.717L136.179 128L107.38 97.0616L107.734 81.9879L107.734 81.9879H107.734Z" fill="#E6E6E6"/>
<path d="M94.8659 68.2466C102.906 68.2466 109.424 61.7397 109.424 53.713C109.424 45.6863 102.906 39.1794 94.8659 39.1794C86.8254 39.1794 80.3073 45.6863 80.3073 53.713C80.3073 61.7397 86.8254 68.2466 94.8659 68.2466Z" fill="#FFB6B6"/>
<path d="M90.2969 65.4098C90.3643 66.8337 90.398 67.5456 90.1789 67.6317C89.5193 67.8907 81.0256 62.8831 80.0254 59.5496C79.5589 57.9948 79.9529 57.9638 79.6124 53.5407C79.2867 49.3102 78.9216 49.2765 79.3532 48.2299C79.833 47.0666 81.2981 45.6333 84.2283 42.7668C85.3362 41.6829 85.8902 41.141 86.2399 40.8608C87.2997 40.0116 91.2481 36.848 94.8686 37.2567C96.3862 37.428 96.1268 38.0329 101.796 41.1021C102.285 41.3665 102.939 41.7154 103.844 42.1161C106.043 43.0905 107.408 43.3432 108.126 43.6149C112.479 45.2619 111.202 54.4361 110.828 54.4886C110.691 54.5078 110.654 53.3182 109.94 53.2198C109.297 53.1313 108.887 54.0346 108.303 54.0675C106.707 54.1573 108.479 52.632 104.573 50.938C103.054 50.2794 107.28 53.2488 103.258 53.2006C96.9671 53.1252 100.99 53.5249 98.6013 54.7776C96.8591 55.6912 89.8506 50.6635 90.1354 52.27C90.3362 53.4031 91.1599 53.7294 91.0411 54.9988C90.926 56.2287 90.0001 57.5542 89.1834 57.6029C88.4307 57.6478 88.0182 56.5933 87.7671 56.6942C87.494 56.804 87.794 58.1273 88.3829 59.4868C89.1306 61.2127 89.5768 61.2262 89.9711 62.5536C90.1979 63.3171 90.2309 64.0147 90.297 65.4098H90.2969V65.4098Z" fill="#2F2E41"/>
<path d="M205.042 164.575L111.237 140.75C105.241 139.227 101.603 133.117 103.129 127.131L114.799 81.3422C116.325 75.3561 122.444 71.725 128.441 73.2481L222.246 97.0737C228.242 98.5967 231.88 104.706 230.354 110.692L218.684 156.481C217.158 162.467 211.039 166.098 205.042 164.575Z" fill="white"/>
<path d="M205.042 164.575L111.237 140.75C108.239 139.988 105.83 138.08 104.11 135.55C101.607 131.869 100.954 127.234 102.053 122.923L111.839 84.5254C112.938 80.2136 115.73 76.4543 119.691 74.4151C122.414 73.0135 125.443 72.4865 128.441 73.248L222.246 97.0737C228.252 98.5992 231.882 104.696 230.354 110.692L218.684 156.481C217.158 162.467 211.039 166.098 205.042 164.575H205.042ZM128.184 74.2555C122.735 72.8716 124.159 77.7978 122.773 83.2372L122.773 83.2372C116.01 109.775 129.999 137.211 155.476 147.358C169.229 152.835 180.669 157.312 180.669 157.312C199.72 162.151 219.094 150.656 223.941 131.637L229.345 110.436C230.731 104.996 227.438 99.4651 221.989 98.0812L128.184 74.2555V74.2555Z" fill="#3F3D56"/>
<path d="M172.075 110.339L172.075 110.339C171.421 104.974 166.535 101.154 161.161 101.807L161.161 101.807C155.839 102.453 152.037 107.245 152.6 112.549L152.445 112.568L154.812 131.995L172.718 129.82C173.284 129.851 173.86 129.836 174.442 129.765L174.442 129.765C179.816 129.112 183.642 124.235 182.988 118.87V118.87C182.335 113.506 177.448 109.686 172.075 110.339L172.075 110.339V110.339Z" fill="#246DA8"/>
<path d="M137.752 293.853H137.752C136.993 291.902 134.794 290.934 132.84 291.691H132.84C130.905 292.441 129.936 294.602 130.655 296.539L130.598 296.561L133.345 303.626L139.857 301.103C140.072 301.06 140.287 301 140.498 300.918H140.498C142.452 300.161 143.422 297.965 142.663 296.014V296.014C141.905 294.064 139.706 293.096 137.752 293.853L137.752 293.853Z" fill="#E6E6E6"/>
<path d="M283.543 293.853C282.785 291.902 280.586 290.934 278.632 291.691C276.696 292.441 275.728 294.602 276.446 296.539L276.39 296.561L279.136 303.626L285.648 301.103C285.863 301.06 286.078 301 286.29 300.918C288.244 300.161 289.213 297.965 288.455 296.014V296.014C287.697 294.064 285.497 293.096 283.543 293.853L283.543 293.853H283.543Z" fill="#E6E6E6"/>
<path d="M164.386 166.329C171.287 166.329 176.882 160.744 176.882 153.854C176.882 146.965 171.287 141.379 164.386 141.379C157.484 141.379 151.889 146.965 151.889 153.854C151.889 160.744 157.484 166.329 164.386 166.329Z" fill="#246DA8"/>
<path d="M107.579 103.261C106.238 104.129 104.812 104.622 103.527 104.739L91.276 113.806L87.1248 107.86L99.9989 99.3027C100.631 98.1794 101.665 97.0817 103.006 96.2145C106.069 94.2334 109.576 94.2049 110.839 96.1508C112.102 98.0968 110.642 101.28 107.579 103.261H107.579V103.261L107.579 103.261Z" fill="#FFB6B6"/>
<path d="M78.8855 82.1036C78.8855 82.1036 69.5132 81.064 67.9511 84.7026C66.3891 88.3411 63.265 124.726 63.265 124.726L68.4718 133.563L102.618 107.765L95.7027 100.862L81.0687 107.765L78.8855 82.1036H78.8855V82.1036Z" fill="#E6E6E6"/>
<path d="M214.635 93.8608C215.749 95.0043 217.029 95.8019 218.256 96.2019L228.176 107.765L233.55 102.891L222.908 91.6866C222.542 90.4509 221.779 89.1511 220.665 88.0075C218.121 85.3951 214.709 84.5877 213.043 86.204C211.378 87.8204 212.091 91.2484 214.635 93.8608V93.8608Z" fill="#A0616A"/>
<path d="M247.328 79.6135C247.328 79.6135 256.697 80.6836 257.408 84.5781C258.119 88.4725 253.048 124.639 253.048 124.639L246 132.096L218.467 99.3538L226.748 94.1615L239.475 104.145L247.328 79.6135Z" fill="#246DA8"/>
<path d="M121.003 121.605C125.317 121.605 128.815 118.113 128.815 113.806C128.815 109.498 125.317 106.006 121.003 106.006C116.688 106.006 113.19 109.498 113.19 113.806C113.19 118.113 116.688 121.605 121.003 121.605Z" fill="#E6E6E6"/>
<path d="M317.643 211.79C317.47 212.067 317.178 212.518 316.75 213.028C316.322 213.538 315.758 214.097 315.103 214.625C314.447 215.154 313.697 215.639 312.942 216.054C312.184 216.465 311.421 216.807 310.741 217.074C309.163 217.676 307.536 218.137 305.88 218.444C304.224 218.752 302.549 218.924 300.874 218.998C297.52 219.146 294.178 218.914 290.868 218.582C289.833 218.477 288.074 218.302 288.13 218.102C288.187 217.893 289.375 217.892 291.176 218.062C293.356 218.265 295.542 218.437 297.729 218.483C299.915 218.523 302.101 218.434 304.245 218.125C305.812 217.891 307.36 217.553 308.866 217.083C309.622 216.855 310.365 216.591 311.086 216.278C311.808 215.967 312.513 215.62 313.182 215.216C313.852 214.812 314.493 214.363 315.079 213.851C315.665 213.339 316.205 212.776 316.662 212.152C317.118 211.527 317.504 210.85 317.799 210.137C318.087 209.421 318.285 208.669 318.368 207.906C318.437 207.221 318.41 206.526 318.275 205.856C318.14 205.188 317.888 204.541 317.543 203.95C317.199 203.357 316.752 202.823 316.234 202.379C315.716 201.935 315.121 201.582 314.48 201.362C314.402 201.329 314.319 201.309 314.238 201.288L313.994 201.222C313.829 201.187 313.661 201.165 313.495 201.136C313.164 201.1 312.826 201.106 312.494 201.15C311.827 201.238 311.178 201.48 310.606 201.841C310.034 202.201 309.531 202.676 309.169 203.24C308.805 203.8 308.579 204.449 308.562 205.109C308.538 205.731 308.695 206.35 308.989 206.897C309.294 207.439 309.728 207.914 310.244 208.284C311.274 209.03 312.572 209.414 313.846 209.408C314.165 209.403 314.483 209.381 314.796 209.325C315.108 209.268 315.415 209.19 315.71 209.081C316.003 208.975 316.287 208.816 316.574 208.673L316.984 208.42L317.086 208.357C317.12 208.335 317.151 208.31 317.184 208.287L317.379 208.144C317.894 207.759 318.372 207.318 318.789 206.821C318.9 206.702 318.998 206.573 319.098 206.444C319.197 206.315 319.301 206.19 319.391 206.054L319.67 205.651L319.928 205.234C320.006 205.116 320.071 204.99 320.14 204.868C320.209 204.743 320.281 204.622 320.345 204.496C320.471 204.241 320.606 203.993 320.721 203.732C320.78 203.603 320.84 203.474 320.897 203.344L321.061 202.951C321.118 202.82 321.169 202.687 321.219 202.554L321.371 202.154L321.512 201.75C321.56 201.616 321.606 201.481 321.648 201.344L321.778 200.935L321.897 200.522C321.976 200.246 322.057 199.971 322.133 199.695L322.342 198.859C322.607 197.743 322.834 196.615 322.986 195.477L323.047 195.051C323.068 194.909 323.08 194.765 323.097 194.623L323.19 193.766L323.254 192.907C323.263 192.764 323.278 192.621 323.283 192.477L323.299 192.046C323.307 191.776 323.323 191.491 323.321 191.199C323.318 190.905 323.314 190.604 323.312 190.3C323.312 190.147 323.304 189.994 323.297 189.841C323.29 189.687 323.283 189.534 323.277 189.381C323.271 189.228 323.265 189.076 323.259 188.925C323.249 188.774 323.24 188.624 323.23 188.477C323.214 188.232 323.198 187.946 323.175 187.64C323.146 187.335 323.114 187.01 323.083 186.685C323.07 186.522 323.049 186.361 323.028 186.202C323.008 186.043 322.988 185.885 322.969 185.734C322.95 185.583 322.932 185.436 322.915 185.298C322.894 185.159 322.874 185.029 322.856 184.91C322.792 184.495 322.736 184.061 322.64 183.661C322.537 183.2 322.461 182.823 322.39 182.529C322.325 182.233 322.286 182.016 322.274 181.874C322.25 181.589 322.332 181.6 322.52 181.881C322.603 182.005 322.63 181.831 322.773 182.272C322.779 182.29 322.79 182.327 322.796 182.344C323.256 183.679 323.444 185.117 323.612 186.558C324.018 190.097 323.903 193.696 323.273 197.204C323.253 197.313 323.236 197.424 323.215 197.533L323.148 197.86L323.012 198.515C322.971 198.734 322.911 198.949 322.861 199.166L322.703 199.815C322.589 200.246 322.465 200.674 322.346 201.104L322.146 201.744L321.928 202.378C321.626 203.221 321.274 204.048 320.854 204.844C320.433 205.64 319.943 206.404 319.36 207.101L319.084 207.414L318.945 207.571L318.796 207.718L318.497 208.013C318.394 208.107 318.285 208.196 318.18 208.287C317.973 208.476 317.739 208.633 317.514 208.8C317.458 208.843 317.398 208.88 317.338 208.917L317.158 209.026L316.979 209.136C316.919 209.173 316.859 209.211 316.795 209.24L316.418 209.43C316.295 209.496 316.161 209.549 316.028 209.603C315.896 209.659 315.758 209.698 315.623 209.745C315.485 209.781 315.348 209.824 315.208 209.853C314.652 209.974 314.081 210.023 313.515 209.994C312.949 209.965 312.388 209.87 311.845 209.708C311.304 209.542 310.78 209.315 310.294 209.017C309.811 208.715 309.359 208.352 308.989 207.908L308.852 207.741C308.807 207.684 308.768 207.623 308.726 207.564C308.639 207.448 308.569 207.32 308.493 207.196C308.357 206.939 308.232 206.673 308.152 206.391C308.128 206.315 308.104 206.238 308.088 206.16L308.036 205.926C308.016 205.767 307.984 205.609 307.98 205.448C307.956 205.129 307.973 204.803 308.031 204.486C308.145 203.85 308.416 203.246 308.799 202.729L308.786 202.747C309.173 202.197 309.667 201.731 310.226 201.365C310.785 200.999 311.412 200.734 312.072 200.598C312.693 200.468 313.359 200.463 313.986 200.594C314.615 200.719 315.221 200.958 315.769 201.285C316.869 201.942 317.745 202.931 318.312 204.06C318.597 204.625 318.798 205.231 318.911 205.852C319.022 206.47 319.049 207.096 319.004 207.712C318.913 208.944 318.542 210.124 317.99 211.166C317.95 211.25 317.898 211.346 317.841 211.451C317.775 211.557 317.717 211.675 317.643 211.79Z" fill="black"/>
<path d="M25.6419 209.271C25.7751 209.265 25.949 209.246 26.1563 209.217C26.3629 209.173 26.6063 209.136 26.8634 209.051C27.3825 208.899 27.9757 208.63 28.5425 208.246C29.1107 207.865 29.6504 207.377 30.1232 206.862C30.5958 206.345 31.0056 205.805 31.3452 205.32C31.74 204.76 32.1017 204.171 32.4738 203.588L33.0146 202.706L33.5424 201.819C34.2377 200.632 34.8969 199.431 35.5201 198.217C36.7667 195.789 37.8732 193.31 38.8381 190.797C38.9852 190.402 39.1839 189.871 39.3645 189.446C39.5463 189.02 39.7267 188.705 39.8587 188.748C40.1305 188.839 40.0066 189.793 39.486 191.18C38.8515 192.855 38.1419 194.515 37.3693 196.151C36.5954 197.785 35.7662 199.399 34.9043 200.991C34.2708 202.154 33.596 203.3 32.8825 204.43C32.1779 205.56 31.4054 206.692 30.4006 207.698C29.8968 208.197 29.3321 208.665 28.6836 209.05C28.0375 209.435 27.3037 209.734 26.5253 209.886C26.1399 209.974 25.7338 210.006 25.3374 210.007C24.9384 210.007 24.5413 209.974 24.1545 209.899C23.769 209.824 23.3907 209.72 23.0319 209.58C22.6742 209.438 22.3325 209.267 22.0143 209.066C21.73 208.884 21.4693 208.675 21.2291 208.45C20.9974 208.217 20.7862 207.97 20.6129 207.702C20.2677 207.168 20.0478 206.578 19.9668 205.972C19.925 205.67 19.9132 205.363 19.9431 205.058C19.9511 204.904 19.9805 204.753 20.0049 204.601C20.042 204.451 20.0702 204.299 20.1238 204.151C20.2144 203.853 20.3509 203.564 20.5143 203.285C20.6816 203.006 20.8862 202.743 21.125 202.507C21.6013 202.034 22.1895 201.65 22.8329 201.378C23.4763 201.106 24.1714 200.928 24.8816 200.863C25.5904 200.798 26.3163 200.835 27.0067 201.007C27.6957 201.176 28.354 201.475 28.8786 201.906C29.3637 202.305 29.7548 202.781 30.0361 203.298C30.3187 203.814 30.4936 204.365 30.5956 204.917C30.7986 206.026 30.7162 207.14 30.5414 208.222C30.4971 208.494 30.4452 208.764 30.3868 209.03L30.2001 209.827C30.1353 210.092 30.082 210.36 30.0071 210.623L29.781 211.414L29.668 211.808C29.6312 211.94 29.593 212.072 29.5473 212.201L29.283 212.983L29.1509 213.374L29.0848 213.569L29.0098 213.763L28.7059 214.535C27.279 218.081 25.2327 221.442 22.7071 224.509C22.5584 224.69 22.4157 224.888 22.25 225.08C22.0883 225.275 21.9205 225.475 21.7528 225.677C21.584 225.88 21.4165 226.086 21.2425 226.287C21.0632 226.484 20.8838 226.679 20.7053 226.868C20.5578 227.023 20.3865 227.206 20.2021 227.4C20.0177 227.595 19.8056 227.791 19.6014 227.992C19.3946 228.192 19.1877 228.391 18.9941 228.578C18.8017 228.766 18.6041 228.927 18.4433 229.07C18.1608 229.314 17.8662 229.564 17.6043 229.815C16.3511 230.928 15.9414 231.146 16.1499 230.587C16.1948 230.464 16.0229 230.497 16.2966 230.21C16.3073 230.197 16.3299 230.174 16.3407 230.163C16.5398 229.938 16.7521 229.723 16.9735 229.515C17.1936 229.305 17.4097 229.09 17.6376 228.885C17.8641 228.678 18.0971 228.473 18.3288 228.267C18.5512 228.054 18.7749 227.84 18.9946 227.623C21.1586 225.491 23.0226 223.145 24.6234 220.682C24.823 220.374 25.0059 220.059 25.1978 219.747L25.483 219.279C25.5789 219.123 25.6607 218.961 25.7502 218.802L26.2768 217.847C26.4455 217.526 26.6001 217.2 26.7637 216.877L27.0052 216.391C27.0844 216.229 27.1533 216.063 27.2274 215.899L27.6655 214.912C27.8009 214.581 27.9273 214.246 28.0601 213.913L28.2555 213.412C28.3168 213.244 28.3717 213.076 28.4292 212.907L28.6406 212.286C28.7098 212.079 28.7867 211.874 28.8431 211.663L29.2086 210.409C29.3165 209.988 29.4142 209.566 29.517 209.145C29.626 208.722 29.7012 208.303 29.77 207.882C29.8363 207.46 29.8761 207.039 29.8983 206.618C29.9106 206.199 29.9015 205.779 29.8525 205.368C29.796 204.958 29.7109 204.553 29.569 204.169C29.4209 203.786 29.2297 203.42 28.9787 203.089C28.8319 202.914 28.6851 202.74 28.5057 202.589L28.3771 202.471L28.2392 202.367C28.1944 202.331 28.1449 202.3 28.0966 202.268C28.0471 202.237 28.0011 202.201 27.9492 202.174C27.7487 202.053 27.5293 201.953 27.3053 201.863C27.0777 201.775 26.8399 201.707 26.5962 201.649L26.6128 201.652C25.5781 201.445 24.448 201.565 23.461 201.93C22.5244 202.272 21.7001 202.873 21.2579 203.646C20.8085 204.426 20.6841 205.35 20.8881 206.201C20.9338 206.415 21.0107 206.623 21.0948 206.826C21.1901 207.025 21.2903 207.223 21.4199 207.405C21.6728 207.771 21.9929 208.1 22.3776 208.367C22.7598 208.635 23.1908 208.851 23.6474 209.006C24.1052 209.16 24.5873 209.251 25.0672 209.279C25.105 209.282 25.1467 209.284 25.1909 209.286C25.2348 209.284 25.2813 209.283 25.3304 209.282C25.4248 209.282 25.5317 209.28 25.6419 209.271Z" fill="black"/>
<path d="M270.114 289.057C270.186 288.537 270.263 288.016 270.34 287.496C270.387 287.177 270.461 286.861 270.465 286.535C270.465 286.446 270.423 286.35 270.472 286.267V286.269C270.473 286.174 270.465 286.078 270.482 285.987C270.547 285.64 270.577 285.27 270.672 284.942C270.675 284.93 270.661 284.909 270.665 284.89C270.682 284.797 270.759 284.473 270.791 284.263C270.865 283.774 270.952 283.288 271.163 282.824C271.196 282.752 271.498 281.706 271.887 281.778C272.294 281.853 272.238 282.898 272.199 283.027C272.106 283.341 271.956 283.646 271.97 283.977C271.991 284.461 271.852 284.916 271.791 285.386C271.736 285.806 271.64 286.222 271.589 286.644C271.54 287.04 271.559 287.448 271.487 287.841C271.424 288.179 271.263 288.5 271.166 288.833C271.143 288.912 271.2 289.02 271.177 289.106C271.159 289.178 271.135 289.297 271.087 289.364C271.068 289.392 271.043 289.421 271.052 289.453C271.094 289.604 270.794 290.713 270.323 290.62C269.861 290.527 270.051 289.509 270.114 289.057Z" fill="black"/>
<path d="M273.475 286.043C273.603 285.577 273.736 285.112 273.869 284.648C273.952 284.362 274.059 284.085 274.097 283.788C274.108 283.705 274.076 283.611 274.134 283.542V283.544C274.146 283.458 274.148 283.369 274.174 283.286C274.276 282.978 274.346 282.645 274.476 282.359C274.481 282.349 274.469 282.326 274.474 282.31C274.502 282.228 274.613 281.942 274.667 281.755C274.793 281.318 274.932 280.887 275.192 280.493C275.232 280.432 275.644 279.519 276.021 279.642C276.414 279.769 276.246 280.717 276.193 280.831C276.067 281.105 275.884 281.362 275.862 281.667C275.83 282.114 275.644 282.51 275.532 282.929C275.432 283.306 275.293 283.672 275.195 284.05C275.104 284.406 275.078 284.781 274.964 285.13C274.864 285.429 274.671 285.699 274.539 285.99C274.508 286.059 274.551 286.165 274.52 286.243C274.494 286.306 274.457 286.411 274.404 286.465C274.381 286.488 274.353 286.511 274.359 286.542C274.383 286.686 273.967 287.657 273.51 287.502C273.064 287.352 273.364 286.448 273.475 286.043Z" fill="black"/>
<path d="M276.753 283.61C276.985 283.03 277.239 282.457 277.52 281.898C277.688 281.553 277.893 281.227 278.039 280.868C278.079 280.77 278.083 280.649 278.167 280.575L278.165 280.577C278.211 280.474 278.244 280.363 278.305 280.27C278.53 279.913 278.744 279.526 279.002 279.21C279.012 279.198 279.009 279.17 279.023 279.151C279.089 279.061 279.328 278.741 279.48 278.536C279.819 278.05 280.193 277.589 280.666 277.22C280.703 277.19 280.956 276.951 281.234 276.757C281.52 276.566 281.829 276.421 281.971 276.559C282.12 276.703 282.015 277.016 281.861 277.304C281.711 277.596 281.512 277.866 281.457 277.921C281.324 278.052 281.18 278.173 281.045 278.304C280.913 278.437 280.794 278.581 280.708 278.749C280.463 279.242 280.1 279.645 279.817 280.106L279.428 280.721C279.296 280.924 279.172 281.133 279.06 281.346C278.846 281.749 278.707 282.189 278.495 282.589C278.314 282.934 278.047 283.239 277.853 283.582C277.807 283.663 277.825 283.793 277.779 283.884C277.741 283.959 277.683 284.085 277.62 284.148C277.591 284.175 277.56 284.203 277.56 284.239C277.556 284.325 277.413 284.662 277.213 284.956C277.02 285.252 276.771 285.51 276.544 285.428C276.323 285.345 276.322 285.017 276.397 284.644C276.439 284.458 276.5 284.264 276.564 284.082C276.634 283.901 276.704 283.737 276.753 283.61Z" fill="black"/>
</g>
<defs>
<clipPath id="clip0_234_59">
<rect width="344" height="267" fill="white" transform="translate(0 37.2205)"/>
</clipPath>
</defs>
</svg>
