<svg width="518" height="327" viewBox="0 0 518 327" fill="none" xmlns="http://www.w3.org/2000/svg">
<path d="M479.203 12.9209C479.915 12.0684 480.642 11.2191 481.368 10.3774C481.817 9.85994 482.321 9.39838 482.663 8.78609C482.756 8.61659 482.746 8.3569 482.952 8.29151L482.947 8.29453C483.051 8.11899 483.124 7.91703 483.263 7.7772C483.78 7.24206 484.233 6.59254 484.806 6.14555C484.827 6.1258 484.814 6.06269 484.842 6.03226C484.981 5.89244 485.509 5.41577 485.802 5.07483C486.486 4.28495 487.201 3.52151 488.212 3.02542C488.369 2.94568 490.2 1.51524 491.117 2.35138C492.072 3.22786 490.87 5.10431 490.638 5.27694C490.083 5.69956 489.389 6.00856 489.09 6.65818C488.65 7.61193 487.838 8.22228 487.205 8.99889C486.636 9.6963 485.974 10.3098 485.415 11.0134C484.891 11.676 484.523 12.48 483.939 13.0897C483.435 13.6158 482.698 13.932 482.115 14.3851C481.976 14.4926 482.008 14.7971 481.865 14.92C481.747 15.0201 481.565 15.2071 481.377 15.2481C481.295 15.2672 481.208 15.277 481.197 15.3552C481.15 15.7157 479.26 17.2745 478.154 16.2459C477.067 15.2451 478.587 13.6609 479.203 12.9209Z" fill="black"/>
<path d="M490.77 24.7125C491.547 24.1755 492.326 23.6508 493.112 23.1277C493.594 22.8103 494.117 22.5579 494.527 22.1168C494.637 21.9951 494.679 21.7544 494.874 21.7672C494.997 21.6441 495.097 21.4839 495.241 21.4056C495.791 21.0904 496.3 20.6581 496.879 20.4415C496.901 20.4341 496.9 20.3696 496.929 20.3514C497.078 20.2701 497.618 20.0132 497.94 19.8031C498.682 19.3149 499.439 18.8622 500.398 18.7495C500.548 18.7327 502.392 18.0412 503.029 19.1124C503.689 20.2208 502.298 21.5223 502.071 21.6074C501.513 21.8042 500.854 21.851 500.476 22.343C499.918 23.059 499.101 23.3421 498.41 23.837C497.788 24.282 497.101 24.6126 496.49 25.0638C495.914 25.4862 495.443 26.0956 494.826 26.453C494.291 26.7591 493.6 26.7993 493.012 27.0219C492.87 27.0726 492.845 27.3611 492.697 27.4225C492.575 27.4735 492.383 27.582 492.219 27.5557C492.145 27.5441 492.065 27.5233 492.04 27.5906C491.929 27.9013 490.015 28.6826 489.252 27.3796C488.489 26.1089 490.094 25.1784 490.77 24.7125Z" fill="black"/>
<path d="M500.225 40.7672C501.359 40.4138 502.499 40.0696 503.638 39.733C504.336 39.5255 505.054 39.4026 505.717 39.0548C505.898 38.96 506.047 38.7296 506.269 38.7842L506.264 38.7872C506.457 38.691 506.643 38.5609 506.85 38.5078C507.623 38.3241 508.408 38.0099 509.173 37.9289C509.203 37.9231 509.23 37.8604 509.272 37.8532C509.478 37.8078 510.218 37.6774 510.685 37.538C511.757 37.2238 512.836 36.9512 514.008 37.0604C514.191 37.0747 516.642 36.8243 516.925 38.0346C517.216 39.2988 515.041 40.2709 514.735 40.2953C513.997 40.3658 513.213 40.2576 512.559 40.6515C511.599 41.2387 510.525 41.3271 509.51 41.6573C508.595 41.9563 507.651 42.1244 506.742 42.4326C505.887 42.72 505.078 43.2182 504.204 43.4331C503.451 43.6171 502.625 43.4962 501.845 43.5739C501.662 43.5919 501.503 43.8682 501.304 43.9029C501.14 43.9288 500.87 43.9889 500.687 43.9225C500.609 43.894 500.525 43.8562 500.465 43.9201C500.206 44.2076 497.631 44.5365 497.299 43.0584C496.968 41.6249 499.243 41.0762 500.225 40.7672Z" fill="black"/>
<g clip-path="url(#clip0_234_58)">
<path d="M175.238 67.8669C171.697 54.978 200.26 43.9255 207.761 54.3049C208.804 52.8293 212.659 51.933 214.427 52.3856C216.196 52.8383 217.683 53.97 219.134 55.0654C221.129 56.5955 223.197 58.1798 224.422 60.3797C225.655 62.5706 225.845 65.5583 224.186 67.4595C222.871 68.9714 218.989 69.9491 217.012 70.3475C215.633 70.6281 214.472 70.8545 213.475 71.0174C212.586 69.7228 212.133 68.1203 212.296 66.5541C210.954 67.4413 210.047 68.9623 209.902 70.5738C209.874 70.9088 221.048 111.948 221.048 111.948C219.896 112.627 218.472 113.26 216.831 113.84C214.046 109.648 211.761 104.705 210.255 99.5354C209.911 102.731 209.965 106.199 210.382 109.72C210.6 111.594 210.926 113.478 211.344 115.361C198.066 118.222 178.095 117.28 169.407 105.112C169.405 105.062 169.404 105.012 169.402 104.961C169.34 102.684 166.228 102.119 165.396 104.239C165.185 104.776 164.991 105.241 164.818 105.61C162.287 96.575 165.561 86.1184 175.238 67.8669V67.8669Z" fill="#2F2E41"/>
<path d="M355.718 170.075C352.577 173.794 347.01 174.267 343.284 171.131C342.923 170.828 342.587 170.495 342.279 170.138L300.348 183.395L293.823 172.719L343.741 157.337C347.657 154.453 353.174 155.284 356.063 159.193C358.481 162.464 358.338 166.963 355.718 170.075H355.718Z" fill="#FFB6B6"/>
<path d="M207.223 136.947C207.223 136.947 225.791 116.098 233.88 124.954C241.969 133.811 267.204 172.62 267.204 172.62L326.112 160.214L331.808 175.732L264.921 197.369C259.893 198.995 254.383 197.309 251.132 193.148L207.223 136.947V136.947Z" fill="#246DA8"/>
<path d="M247.552 327H155.452L155.368 326.282L155.314 325.804L154.523 319.105L153.403 309.565L152.971 305.898C152.941 305.713 152.911 305.533 152.888 305.348C152.51 302.961 152.294 300.563 152.216 298.17C152.103 294.881 152.252 291.597 152.606 288.355V288.337C152.798 286.585 153.043 284.85 153.349 283.134C153.732 280.927 154.194 278.755 154.727 276.632C155.338 274.168 156.033 271.769 156.794 269.455C157.669 266.745 158.628 264.149 159.616 261.697C159.724 261.434 159.832 261.171 159.934 260.913L159.94 260.907C165.153 248.221 171.073 239.554 171.073 239.554H238.169C238.169 239.554 241.273 253.15 242.813 264.376C243.059 266.153 243.262 267.863 243.412 269.455C243.682 272.391 243.76 274.915 243.526 276.632C243.382 277.697 243.119 278.45 242.711 278.797C239.02 281.943 243.244 288.618 243.244 288.618C243.244 288.618 246.408 293.445 243.652 296.161C243.107 296.699 242.795 297.393 242.645 298.17C242.405 299.456 242.615 300.952 242.945 302.274C243.274 303.601 243.73 304.756 243.981 305.348C244.095 305.611 244.167 305.761 244.167 305.761L244.634 309.451L245.09 313.004L245.863 319.105L246.096 320.181L247.301 325.804L247.403 326.282L247.552 327H247.552Z" fill="#2F2E41"/>
<path d="M201.031 108.423L172.871 110.927L167.68 127.049L162.024 127.867C152.359 129.264 146.606 139.383 150.362 148.383L155.339 160.309C155.339 160.309 148.028 182.833 157.006 192.297L160.827 233.979L152.209 261.457L252.951 264.703L235.791 230.236L235.282 208.836C235.282 208.836 246.248 170.154 236.081 157.85L232.115 122.854L211.449 119.76L201.031 108.423H201.031Z" fill="#246DA8"/>
<path d="M220.096 87.7383C222.998 75.2444 215.204 62.7679 202.688 59.8712C190.172 56.9745 177.673 64.7546 174.771 77.2485C171.869 89.7424 179.663 102.219 192.179 105.116C204.695 108.012 217.194 100.232 220.096 87.7383Z" fill="#FFB6B6"/>
<path d="M162.541 69.6775C159 56.7886 187.563 45.7361 195.064 56.1156C196.107 54.64 199.961 53.7436 201.73 54.1963C203.499 54.649 204.986 55.7806 206.437 56.8761C208.432 58.4061 210.5 59.9905 211.724 62.1904C212.958 64.3813 213.148 67.369 211.489 69.2701C210.174 70.782 206.292 71.7598 204.315 72.1581C202.936 72.4388 201.775 72.6651 200.778 72.8281C199.889 71.5335 199.435 69.931 199.599 68.3648C198.256 69.252 197.35 70.773 197.204 72.3845C197.177 72.7195 208.351 113.758 208.351 113.758C207.199 114.437 205.775 115.071 204.133 115.65C201.349 111.459 199.064 106.516 197.558 101.346C197.213 104.542 197.268 108.009 197.685 111.531C197.903 113.405 198.229 115.288 198.646 117.171C185.369 120.032 165.398 119.091 156.71 106.923C156.708 106.873 156.707 106.822 156.705 106.772C156.643 104.495 153.531 103.929 152.699 106.05C152.488 106.587 152.294 107.051 152.121 107.421C149.59 98.3856 152.864 87.929 162.541 69.6775L162.541 69.6775Z" fill="#2F2E41"/>
<path d="M361.403 326.282H48.6297L0.0958252 326.88L340.469 306.595C351.823 305.919 361.403 314.928 361.403 326.282V326.282V326.282Z" fill="#3F3D56"/>
<path d="M391.136 79.478H311.414C309.575 79.478 308.079 77.9902 308.079 76.1617C308.079 74.3332 309.575 72.8461 311.414 72.8461H391.136C392.975 72.8461 394.47 74.3332 394.47 76.1617C394.47 77.9902 392.975 79.478 391.136 79.478Z" fill="#246DA8"/>
<path d="M351.245 90.1727C350.947 89.4397 349.918 89.4397 349.62 90.1729C347.541 95.288 344.582 101.016 341.363 105.394C340.848 106.095 341.558 107.032 342.377 106.736L349.277 104.244V146.881H351.587V104.244L358.489 106.736C359.308 107.032 360.019 106.095 359.503 105.394C356.284 101.017 353.325 95.2881 351.245 90.1727V90.1727Z" fill="#3F3D56"/>
<path d="M462.945 103.85H413.794C412.66 103.85 411.738 102.933 411.738 101.806C411.738 100.679 412.66 99.7617 413.794 99.7617H462.945C464.078 99.7617 465 100.679 465 101.806C465 102.933 464.078 103.85 462.945 103.85Z" fill="#F2F2F2"/>
<path d="M438.351 110.444C438.167 109.992 437.533 109.992 437.349 110.444C436.067 113.598 434.243 117.129 432.258 119.828C431.941 120.26 432.379 120.838 432.884 120.656L437.138 119.119V145.406H438.562V119.119L442.817 120.656C443.322 120.838 443.76 120.261 443.442 119.829C441.458 117.13 439.633 113.598 438.351 110.444V110.444Z" fill="#F2F2F2"/>
<path d="M438.377 170.77C444.276 170.77 449.058 165.997 449.058 160.109C449.058 154.221 444.276 149.447 438.377 149.447C432.479 149.447 427.697 154.221 427.697 160.109C427.697 165.997 432.479 170.77 438.377 170.77Z" fill="#F2F2F2"/>
<path d="M305.36 43.4399H256.209C255.075 43.4399 254.153 42.5226 254.153 41.3953C254.153 40.268 255.075 39.3512 256.209 39.3512H305.36C306.493 39.3512 307.415 40.268 307.415 41.3953C307.415 42.5226 306.493 43.4399 305.36 43.4399V43.4399Z" fill="#F2F2F2"/>
<path d="M280.766 50.0335C280.582 49.5816 279.947 49.5816 279.764 50.0336C278.482 53.1872 276.658 56.7189 274.673 59.4179C274.356 59.85 274.794 60.4274 275.299 60.2451L279.552 58.7088V84.9955H280.977V58.7088L285.232 60.2452C285.737 60.4276 286.175 59.8502 285.857 59.418C283.873 56.719 282.048 53.1872 280.766 50.0335H280.766Z" fill="#F2F2F2"/>
<path d="M280.792 110.359C286.691 110.359 291.472 105.586 291.472 99.6981C291.472 93.81 286.691 89.0367 280.792 89.0367C274.894 89.0367 270.112 93.81 270.112 99.6981C270.112 105.586 274.894 110.359 280.792 110.359Z" fill="#F2F2F2"/>
<path d="M156.967 306.28C159.487 302.116 158.148 296.701 153.977 294.185C153.573 293.941 153.15 293.73 152.712 293.554L151.827 249.657L139.604 246.916L141.036 299.045C139.557 303.674 142.117 308.623 146.753 310.099C150.633 311.335 154.856 309.756 156.967 306.28V306.28Z" fill="#FFB6B6"/>
<path d="M165.47 133.088C165.47 133.088 150.491 129.499 145.697 139.668C140.904 149.836 140.496 194.083 140.496 194.083L137.908 283.815L156.909 282.979L172.061 172.564L165.47 133.088V133.088Z" fill="#246DA8"/>
<path d="M158.747 319.52C159.084 319.942 159.596 320.187 160.137 320.184H257.408C258.397 320.183 259.197 319.382 259.196 318.395C259.196 318.273 259.183 318.151 259.158 318.031L257.648 310.871C257.521 310.278 257.101 309.79 256.533 309.573C256.331 309.494 256.116 309.454 255.898 309.454H161.641C161.423 309.454 161.208 309.494 161.006 309.573C160.438 309.79 160.018 310.278 159.891 310.871L158.381 318.031C158.272 318.557 158.407 319.104 158.747 319.52V319.52Z" fill="#CCCCCC"/>
<path d="M121.507 159.247V271.252C121.51 274.224 123.923 276.632 126.9 276.635H293.173C296.151 276.632 298.564 274.224 298.566 271.252V159.247C298.559 156.278 296.148 153.874 293.173 153.87H126.9C123.926 153.874 121.515 156.278 121.507 159.247V159.247Z" fill="#E6E6E6"/>
<path d="M230.829 252.683C230.632 252.617 230.422 252.587 230.212 252.587H191.313C190.169 252.587 189.234 253.514 189.234 254.657V316.001H232.285V254.657C232.285 253.754 231.698 252.952 230.829 252.683V252.683ZM215.227 282.852C215.215 285.389 213.147 287.434 210.607 287.422C208.084 287.404 206.047 285.371 206.035 282.852V275.735C206.059 273.205 208.138 271.171 210.673 271.195C213.177 271.219 215.203 273.241 215.227 275.735V282.852V282.852Z" fill="#CCCCCC"/>
<path d="M41.1412 19.8845C41.7172 21.0628 42.2807 22.2414 42.8419 23.425C43.1819 24.1524 43.453 24.9087 43.9288 25.5832C44.0561 25.7677 44.3192 25.8994 44.3062 26.1467L44.3084 26.1417C44.4415 26.3408 44.6139 26.5217 44.7024 26.7368C45.0416 27.5482 45.5035 28.349 45.7347 29.1656C45.744 29.1999 45.8154 29.2203 45.8327 29.2644C45.9212 29.4795 46.1934 30.2604 46.4209 30.7436C46.9459 31.8566 47.4264 32.9854 47.5418 34.2617C47.5566 34.4614 48.2906 37.0681 47.1152 37.5224C45.8929 37.9976 44.4933 35.7757 44.4045 35.4519C44.1973 34.6644 44.1528 33.8061 43.6227 33.1552C42.8462 32.1992 42.5485 31.051 42.019 30.0024C41.5424 29.0562 41.1868 28.0625 40.7028 27.1189C40.2469 26.2364 39.5885 25.4306 39.2039 24.5142C38.8734 23.7249 38.8367 22.8219 38.6049 21.9931C38.5502 21.7994 38.2391 21.6639 38.1682 21.4509C38.1118 21.2745 37.9974 20.9934 38.03 20.7851C38.0457 20.6958 38.066 20.5965 37.9956 20.5464C37.6591 20.303 36.8311 17.5752 38.2588 17.0306C39.6488 16.4869 40.6432 18.8623 41.1412 19.8845Z" fill="black"/>
<path d="M32.4159 37.1751C33.2018 37.8097 33.9832 38.4544 34.7572 39.1017C35.2346 39.4996 35.6545 39.9558 36.2225 40.2502C36.3775 40.3327 36.6305 40.3091 36.6852 40.5028C36.8483 40.595 37.0398 40.6519 37.1692 40.7771C37.6599 41.2414 38.2607 41.6412 38.6637 42.162C38.6797 42.1813 38.7442 42.1624 38.7683 42.1915C38.8977 42.3166 39.3285 42.7898 39.6433 43.0535C40.3704 43.6675 41.0684 44.3043 41.4912 45.2321C41.5561 45.3762 42.8429 47.0404 41.9862 47.9411C41.0936 48.8798 39.3435 47.8248 39.1825 47.619C38.803 47.1149 38.5426 46.4719 37.9313 46.2181C37.0324 45.8456 36.4878 45.1036 35.7683 44.5414C35.1221 44.0365 34.5693 43.4355 33.9185 42.9407C33.3044 42.4746 32.5519 42.1626 31.9953 41.6382C31.5177 41.186 31.248 40.5087 30.8422 39.9805C30.7431 39.8571 30.4507 39.899 30.3362 39.7685C30.2428 39.6598 30.0761 39.4936 30.0477 39.3239C30.0366 39.2525 30.0273 39.1639 29.9564 39.1558C29.6102 39.125 28.2079 37.4143 29.2595 36.3308C30.2865 35.2604 31.7347 36.6242 32.4159 37.1751Z" fill="black"/>
<path d="M18.83 53.012C20.2313 53.3175 21.6259 53.6381 23.0256 53.9609C23.8858 54.1591 24.7222 54.4369 25.6134 54.4984C25.8556 54.5121 26.1369 54.3988 26.3464 54.5664L26.3413 54.5641C26.599 54.5848 26.8651 54.5731 27.1097 54.6361C28.0358 54.8944 29.0369 55.0421 29.9043 55.3882C29.9352 55.4022 29.9985 55.3587 30.0545 55.3721C30.302 55.4424 31.1641 55.7319 31.7317 55.8633C33.0451 56.1711 34.3478 56.5161 35.5509 57.244C35.7403 57.3603 38.5066 58.4613 38.1905 59.662C37.8643 60.9124 35.0274 60.5812 34.6831 60.4368C33.8563 60.097 33.0661 59.581 32.1573 59.5717C30.8281 59.5583 29.6261 59.06 28.3625 58.793C27.2286 58.5548 26.1241 58.1973 24.9857 57.9691C23.921 57.7564 22.7986 57.7525 21.7503 57.4627C20.8448 57.2139 20.0151 56.6618 19.1374 56.311C18.9322 56.2297 18.615 56.3809 18.3897 56.3026C18.2027 56.2357 17.8786 56.1426 17.7148 55.9837C17.6461 55.9163 17.5717 55.8342 17.4798 55.8588C17.0522 55.9658 14.1196 54.8616 14.5088 53.4047C14.8929 51.9997 17.6143 52.7487 18.83 53.012Z" fill="black"/>
<path d="M408.232 305.514C408.412 304.207 408.606 302.901 408.799 301.594C408.918 300.793 409.103 300.002 409.112 299.183C409.112 298.959 409.006 298.717 409.129 298.51V298.515C409.134 298.277 409.112 298.035 409.156 297.806C409.318 296.935 409.393 296.007 409.631 295.184C409.639 295.154 409.604 295.101 409.613 295.052C409.657 294.819 409.851 294.005 409.93 293.477C410.115 292.25 410.335 291.031 410.862 289.866C410.946 289.685 411.703 287.059 412.679 287.239C413.7 287.428 413.559 290.05 413.462 290.376C413.229 291.163 412.851 291.929 412.886 292.76C412.939 293.975 412.591 295.118 412.437 296.297C412.301 297.353 412.059 298.396 411.931 299.456C411.808 300.45 411.857 301.475 411.676 302.461C411.518 303.31 411.113 304.115 410.871 304.951C410.814 305.149 410.955 305.421 410.898 305.637C410.854 305.817 410.792 306.117 410.673 306.284C410.625 306.354 410.563 306.429 410.585 306.508C410.691 306.886 409.939 309.671 408.755 309.438C407.598 309.205 408.073 306.649 408.232 305.514Z" fill="black"/>
<path d="M416.661 297.947C416.982 296.777 417.316 295.611 417.651 294.445C417.857 293.728 418.126 293.033 418.223 292.285C418.249 292.078 418.17 291.841 418.315 291.669V291.673C418.346 291.458 418.35 291.234 418.416 291.027C418.671 290.252 418.847 289.417 419.173 288.7C419.186 288.673 419.155 288.616 419.168 288.576C419.239 288.37 419.516 287.653 419.652 287.182C419.969 286.086 420.317 285.004 420.968 284.014C421.069 283.86 422.103 281.568 423.049 281.876C424.034 282.197 423.612 284.577 423.48 284.863C423.163 285.55 422.705 286.196 422.648 286.962C422.569 288.084 422.103 289.078 421.821 290.129C421.57 291.075 421.223 291.995 420.977 292.945C420.748 293.838 420.682 294.779 420.396 295.655C420.145 296.407 419.661 297.085 419.331 297.815C419.252 297.986 419.362 298.255 419.283 298.448C419.217 298.607 419.124 298.871 418.993 299.007C418.935 299.064 418.865 299.121 418.878 299.201C418.94 299.561 417.897 301.999 416.749 301.611C415.631 301.233 416.384 298.963 416.661 297.947Z" fill="black"/>
<path d="M424.884 291.84C425.465 290.384 426.103 288.945 426.807 287.542C427.229 286.675 427.744 285.857 428.109 284.955C428.21 284.709 428.219 284.405 428.43 284.221L428.426 284.225C428.54 283.965 428.623 283.688 428.777 283.455C429.341 282.558 429.877 281.585 430.524 280.794C430.55 280.763 430.542 280.692 430.577 280.644C430.744 280.42 431.342 279.615 431.725 279.1C432.574 277.881 433.511 276.724 434.699 275.796C434.791 275.721 435.425 275.123 436.124 274.635C436.841 274.155 437.616 273.79 437.972 274.137C438.346 274.498 438.082 275.286 437.695 276.007C437.321 276.742 436.819 277.419 436.683 277.556C436.349 277.886 435.988 278.189 435.649 278.519C435.319 278.853 435.02 279.214 434.804 279.637C434.189 280.873 433.278 281.885 432.57 283.042L431.593 284.586C431.263 285.096 430.951 285.62 430.669 286.156C430.132 287.168 429.785 288.272 429.253 289.275C428.799 290.142 428.131 290.907 427.642 291.77C427.528 291.972 427.572 292.298 427.458 292.526C427.361 292.716 427.216 293.032 427.057 293.191C426.987 293.257 426.908 293.327 426.908 293.419C426.899 293.635 426.538 294.48 426.037 295.219C425.553 295.962 424.928 296.609 424.361 296.402C423.806 296.195 423.802 295.373 423.991 294.436C424.097 293.969 424.251 293.481 424.409 293.024C424.585 292.57 424.761 292.157 424.884 291.84Z" fill="black"/>
<path d="M64.7291 161.226C64.873 161.221 65.0611 161.2 65.2853 161.168C65.5087 161.121 65.7719 161.081 66.05 160.989C66.6113 160.824 67.2528 160.533 67.8658 160.117C68.4802 159.705 69.0638 159.177 69.5751 158.619C70.0862 158.06 70.5293 157.475 70.8966 156.95C71.3235 156.344 71.7146 155.707 72.117 155.075L72.7018 154.121L73.2726 153.16C74.0245 151.877 74.7373 150.576 75.4113 149.262C76.7593 146.634 77.9559 143.951 78.9994 141.23C79.1584 140.804 79.3732 140.228 79.5686 139.768C79.7652 139.308 79.9602 138.966 80.103 139.013C80.397 139.111 80.263 140.144 79.6999 141.645C79.0138 143.459 78.2465 145.255 77.411 147.025C76.5741 148.795 75.6774 150.541 74.7454 152.264C74.0602 153.524 73.3305 154.764 72.5589 155.987C71.797 157.21 70.9616 158.436 69.8751 159.524C69.3303 160.065 68.7196 160.571 68.0183 160.988C67.3196 161.405 66.5261 161.728 65.6843 161.893C65.2676 161.988 64.8284 162.022 64.3997 162.024C63.9683 162.024 63.5389 161.988 63.1206 161.906C62.7037 161.825 62.2946 161.713 61.9066 161.562C61.5198 161.408 61.1502 161.222 60.8062 161.005C60.4987 160.808 60.2168 160.581 59.9571 160.338C59.7064 160.086 59.478 159.818 59.2907 159.529C58.9174 158.951 58.6796 158.312 58.592 157.656C58.5468 157.329 58.5341 156.997 58.5664 156.666C58.575 156.501 58.6068 156.337 58.6332 156.172C58.6733 156.01 58.7038 155.845 58.7617 155.686C58.8597 155.362 59.0074 155.05 59.1841 154.748C59.3649 154.446 59.5862 154.161 59.8445 153.906C60.3595 153.393 60.9956 152.978 61.6914 152.683C62.3871 152.389 63.1389 152.197 63.9068 152.127C64.6734 152.055 65.4583 152.096 66.2049 152.283C66.95 152.465 67.6619 152.789 68.2291 153.255C68.7537 153.687 69.1767 154.202 69.4809 154.762C69.7865 155.321 69.9757 155.917 70.086 156.514C70.3055 157.715 70.2163 158.92 70.0273 160.092C69.9794 160.386 69.9233 160.678 69.8601 160.966L69.6583 161.829C69.5882 162.116 69.5306 162.405 69.4495 162.691L69.2051 163.546L69.0828 163.973C69.043 164.116 69.0018 164.258 68.9523 164.398L68.6665 165.244L68.5236 165.668L68.4521 165.879L68.371 166.089L68.0425 166.924C66.4994 170.763 64.2866 174.401 61.5554 177.721C61.3946 177.916 61.2402 178.13 61.0611 178.338C60.8861 178.549 60.7047 178.767 60.5234 178.985C60.3408 179.205 60.1597 179.428 59.9715 179.645C59.7777 179.859 59.5837 180.07 59.3907 180.273C59.2311 180.442 59.0459 180.639 58.8464 180.849C58.647 181.061 58.4177 181.272 58.1968 181.491C57.9732 181.707 57.7495 181.923 57.5401 182.125C57.3321 182.329 57.1184 182.502 56.9445 182.657C56.639 182.921 56.3204 183.192 56.0372 183.464C54.682 184.668 54.2389 184.904 54.4644 184.299C54.5129 184.166 54.3271 184.202 54.6231 183.891C54.6346 183.878 54.6591 183.852 54.6707 183.841C54.8861 183.597 55.1156 183.364 55.3551 183.139C55.5931 182.912 55.8267 182.679 56.0732 182.457C56.3182 182.233 56.5701 182.011 56.8206 181.788C57.0612 181.557 57.3031 181.326 57.5406 181.091C59.8808 178.784 61.8965 176.244 63.6277 173.579C63.8435 173.244 64.0413 172.904 64.2487 172.566L64.5572 172.059C64.6609 171.89 64.7494 171.716 64.8461 171.544L65.4157 170.51C65.5981 170.162 65.7652 169.809 65.9421 169.459L66.2033 168.934C66.2889 168.758 66.3635 168.578 66.4436 168.401L66.9173 167.333C67.0638 166.974 67.2005 166.612 67.344 166.251L67.5553 165.709C67.6216 165.528 67.681 165.345 67.7432 165.162L67.9718 164.491C68.0467 164.266 68.1298 164.044 68.1908 163.816L68.5861 162.458C68.7027 162.004 68.8083 161.546 68.9195 161.09C69.0374 160.633 69.1187 160.179 69.1931 159.723C69.2648 159.267 69.3079 158.811 69.3319 158.355C69.3452 157.901 69.3353 157.448 69.2824 157.002C69.2213 156.558 69.1293 156.121 68.9758 155.704C68.8156 155.29 68.6088 154.894 68.3374 154.536C68.1787 154.347 68.0199 154.157 67.8259 153.994L67.6869 153.867L67.5378 153.754C67.4893 153.715 67.4358 153.681 67.3835 153.647C67.33 153.614 67.2802 153.575 67.2241 153.545C67.0073 153.414 66.77 153.306 66.5278 153.208C66.2817 153.113 66.0245 153.04 65.761 152.977L65.7789 152.98C64.66 152.756 63.438 152.886 62.3706 153.281C61.3578 153.651 60.4664 154.302 59.9882 155.139C59.5022 155.983 59.3677 156.982 59.5883 157.904C59.6378 158.136 59.7209 158.361 59.8118 158.581C59.9148 158.796 60.0232 159.01 60.1633 159.208C60.4368 159.604 60.783 159.96 61.199 160.248C61.6124 160.539 62.0784 160.772 62.5722 160.94C63.0673 161.107 63.5886 161.205 64.1075 161.236C64.1485 161.238 64.1935 161.241 64.2413 161.243C64.2888 161.241 64.3391 161.24 64.3922 161.239C64.4943 161.239 64.6098 161.236 64.7291 161.226Z" fill="black"/>
<path d="M397.44 237.842C397.002 238.164 396.274 238.68 395.301 239.204C394.328 239.728 393.114 240.245 391.779 240.658C390.443 241.071 388.989 241.359 387.568 241.536C386.147 241.706 384.76 241.765 383.548 241.759C380.744 241.719 377.952 241.431 375.209 240.887C372.467 240.346 369.777 239.583 367.149 238.669C361.887 236.838 356.874 234.427 351.975 231.881C350.443 231.083 347.839 229.734 348.047 229.459C348.265 229.171 350.098 229.899 352.77 231.269C356.006 232.919 359.272 234.529 362.616 235.943C365.962 237.346 369.388 238.551 372.885 239.391C375.444 239.993 378.039 240.422 380.651 240.622C381.957 240.733 383.265 240.782 384.569 240.742C385.873 240.705 387.174 240.603 388.454 240.391C389.735 240.178 391 239.879 392.218 239.449C393.437 239.017 394.615 238.48 395.704 237.798C396.791 237.114 397.802 236.306 398.696 235.385C399.58 234.457 400.347 233.419 400.944 232.292C401.472 231.277 401.857 230.187 402.062 229.071C402.264 227.956 402.274 226.803 402.104 225.679C401.938 224.553 401.578 223.455 401.052 222.451C400.525 221.446 399.824 220.536 398.972 219.804C398.872 219.705 398.757 219.624 398.644 219.541L398.308 219.289C398.075 219.133 397.83 218.996 397.592 218.85C397.103 218.59 396.579 218.392 396.039 218.256C394.957 217.982 393.807 217.958 392.703 218.163C391.601 218.368 390.533 218.793 389.627 219.44C388.721 220.082 387.975 220.944 387.543 221.952C387.124 222.898 386.984 223.949 387.102 224.975C387.239 225.998 387.616 226.999 388.184 227.887C389.315 229.671 391.08 231.06 393.047 231.833C393.542 232.022 394.047 232.183 394.564 232.288C395.079 232.392 395.601 232.461 396.124 232.473C396.641 232.489 397.176 232.418 397.706 232.374L398.494 232.235L398.691 232.201C398.756 232.189 398.821 232.168 398.885 232.153L399.273 232.051C400.305 231.775 401.312 231.387 402.261 230.876C402.505 230.761 402.735 230.621 402.969 230.483C403.201 230.346 403.438 230.217 403.661 230.061L404.338 229.611L404.993 229.126C405.185 228.992 405.363 228.837 405.546 228.691C405.727 228.541 405.913 228.398 406.09 228.243C406.44 227.927 406.801 227.627 407.138 227.295C407.309 227.131 407.481 226.97 407.649 226.805L408.144 226.298C408.312 226.131 408.473 225.957 408.632 225.782L409.112 225.258L409.577 224.722C409.734 224.544 409.887 224.363 410.037 224.178L410.489 223.627L410.926 223.063C411.217 222.685 411.511 222.311 411.798 221.93L412.634 220.77C413.728 219.209 414.772 217.608 415.707 215.945L416.063 215.324C416.181 215.118 416.288 214.903 416.402 214.695L417.073 213.429L417.699 212.142C417.802 211.927 417.913 211.715 418.008 211.496L418.298 210.842C418.477 210.429 418.677 210 418.853 209.546C419.029 209.092 419.208 208.625 419.391 208.153C419.485 207.918 419.567 207.677 419.65 207.435C419.734 207.195 419.818 206.954 419.902 206.714C419.987 206.474 420.071 206.236 420.155 205.999C420.233 205.76 420.31 205.523 420.386 205.289C420.511 204.901 420.663 204.451 420.815 203.965C420.958 203.475 421.109 202.954 421.26 202.434C421.34 202.174 421.407 201.912 421.473 201.654C421.539 201.396 421.606 201.141 421.669 200.896C421.733 200.65 421.795 200.414 421.854 200.189C421.907 199.963 421.957 199.749 422.002 199.554C422.158 198.874 422.339 198.171 422.436 197.494C422.56 196.719 422.675 196.09 422.747 195.592C422.828 195.096 422.901 194.737 422.971 194.51C423.108 194.055 423.228 194.123 423.346 194.673C423.397 194.915 423.545 194.663 423.494 195.432C423.493 195.463 423.488 195.527 423.487 195.557C423.376 197.899 422.781 200.235 422.155 202.562C420.605 208.274 418.215 213.759 415.087 218.785C414.99 218.942 414.896 219.102 414.796 219.258L414.491 219.722L413.879 220.649C413.68 220.962 413.457 221.257 413.246 221.561L412.603 222.467C412.162 223.061 411.709 223.646 411.26 224.236L410.558 225.101L409.832 225.947C408.848 227.061 407.798 228.122 406.66 229.093C405.522 230.062 404.297 230.941 402.97 231.659L402.35 231.972L402.04 232.129L401.72 232.264L401.078 232.536C400.861 232.618 400.639 232.688 400.42 232.765C399.985 232.93 399.527 233.027 399.077 233.147C398.965 233.18 398.851 233.2 398.735 233.22L398.391 233.279L398.046 233.338C397.931 233.358 397.816 233.379 397.699 233.385L397.001 233.446C396.77 233.473 396.531 233.472 396.293 233.475C396.055 233.479 395.818 233.455 395.581 233.445C395.346 233.416 395.109 233.398 394.876 233.356C393.943 233.202 393.032 232.927 392.178 232.535C391.323 232.142 390.515 231.65 389.779 231.067C389.046 230.479 388.378 229.806 387.81 229.049C387.252 228.285 386.778 227.447 386.48 226.536L386.372 226.193C386.338 226.078 386.315 225.96 386.286 225.843C386.223 225.611 386.195 225.369 386.153 225.131C386.101 224.651 386.071 224.163 386.122 223.68C386.131 223.548 386.142 223.414 386.166 223.284L386.229 222.89C386.296 222.633 386.344 222.369 386.437 222.119C386.595 221.611 386.823 221.119 387.107 220.664C387.673 219.752 388.462 218.987 389.371 218.425L389.34 218.444C390.275 217.834 391.323 217.417 392.41 217.196C393.497 216.974 394.627 216.95 395.728 217.146C396.767 217.326 397.795 217.727 398.682 218.315C399.576 218.894 400.363 219.635 401.007 220.477C402.3 222.166 403.042 224.23 403.223 226.321C403.315 227.369 403.253 228.428 403.044 229.455C402.836 230.478 402.492 231.461 402.044 232.384C401.146 234.229 399.85 235.823 398.359 237.091C398.245 237.196 398.106 237.313 397.952 237.44C397.786 237.564 397.624 237.709 397.44 237.842Z" fill="black"/>
</g>
<defs>
<clipPath id="clip0_234_58">
<rect width="465" height="322" fill="white" transform="translate(0 5)"/>
</clipPath>
</defs>
</svg>
