<svg width="299" height="9" viewBox="0 0 299 9" fill="none" xmlns="http://www.w3.org/2000/svg">
<path d="M298.595 4.70974C298.514 4.8216 298.426 4.91205 298.332 4.97854L298.222 5.05091H298.145L297.943 5.12329C297.526 5.237 297.208 5.26802 296.846 5.31971L295.831 5.42306C294.493 5.53678 293.16 5.6092 291.822 5.67123C289.153 5.79528 286.472 5.88482 283.777 5.93996L267.495 6.19841L259.817 6.27078C261.15 6.33281 262.482 6.39486 263.804 6.4879H264.495C268.751 6.69465 267.237 7.07714 268.553 7.37694C274.443 8.72087 269.793 9.13436 252.183 8.90693C248.345 8.85524 244.292 8.90693 240.376 8.90693L206.923 8.96896L173.619 8.74155L45.039 9L26.3932 8.81393C20.1852 8.70021 13.9773 8.61747 7.74735 8.26599C6.96861 8.26599 6.18439 8.16262 5.40016 8.09026C5.00531 8.09026 4.61046 8.00753 4.19915 7.93517C3.95604 7.89605 3.71435 7.83053 3.47526 7.73881C3.40436 7.70654 3.33473 7.66503 3.26686 7.61469C3.17308 7.54352 3.08459 7.44974 3.00363 7.33561C2.8062 7.33561 2.36199 5.73325 2.76233 4.69946C2.89746 4.33194 3.08874 4.05065 3.31073 3.89307L3.47526 3.8C3.63978 3.72764 3.74398 3.69668 3.85914 3.66567C4.68175 3.54161 5.46049 3.51057 6.26665 3.4382L7.46218 3.33485H8.63028C11.7398 3.24181 14.8492 3.13842 17.9532 3.12808H22.0005C8.69061 2.76625 0.294495 1.85652 0.00383898 0.802049C-0.286817 -0.252418 15.9954 0.00602818 25.5925 0.0887308C86.9757 0.781371 148.529 0.667679 210.077 0.76072L289.87 0.95708C292.316 0.95708 294.559 0.95714 296.248 1.01917H297.268C297.454 1.01917 297.608 1.01913 297.844 1.11217H297.926H298.047L298.156 1.16385C298.239 1.20465 298.319 1.2565 298.398 1.31894L298.513 1.41195C298.679 1.5888 298.816 1.85034 298.908 2.16666C299.209 3.46924 298.683 4.86481 298.595 4.70974Z" fill="#246DA8"/>
</svg>
