<svg width="516" height="426" viewBox="0 0 516 426" fill="none" xmlns="http://www.w3.org/2000/svg">
<g clip-path="url('#clip0_233_57')">
<path d="M297.356 19.3221C301.782 28.922 292.403 31.6412 281.66 36.7866C270.916 41.932 262.877 47.5552 258.451 37.9553C254.025 28.3554 250.433 9.30137 265.632 2.02226C281.354 -5.50761 292.93 9.72217 297.356 19.3221Z" fill="#2F2E41"></path>
<path d="M275.436 38.2012C283.424 38.2012 289.899 31.6015 289.899 23.4603C289.899 15.3191 283.424 8.71936 275.436 8.71936C267.449 8.71936 260.973 15.3191 260.973 23.4603C260.973 31.6015 267.449 38.2012 275.436 38.2012Z" fill="#FFB8B8"></path>
<path d="M347.089 88.8334C346.588 88.1672 346.087 87.513 345.581 86.8768C344.928 86.0486 344.27 85.2463 343.608 84.4701C336.112 75.6535 328.139 70.1019 319.359 69.5077H319.348L319.218 69.4957L301.723 86.8768L295.775 92.7825L295.905 93.1066L299.114 101.251H355.344C352.811 96.9654 350.055 92.8203 347.089 88.8334V88.8334Z" fill="#2F2E41"></path>
<path d="M259.709 29.395L264.886 26.9154L264.165 19.3032L267.627 25.6028L270.101 24.4176L269.681 19.9772L271.7 23.6519L290.087 14.8457C288.36 11.1001 285.244 8.20706 281.424 6.80307C277.605 5.39908 273.394 5.59914 269.719 7.35924L267.054 8.6355C263.379 10.3956 260.541 13.5716 259.163 17.4647C257.786 21.3579 257.982 25.6494 259.709 29.395V29.395Z" fill="#2F2E41"></path>
<path d="M379.535 296.967H77.5453C74.9693 296.964 72.4997 295.92 70.6782 294.063C68.8567 292.207 67.8321 289.69 67.8292 287.064V102.118C67.8313 100.194 68.5819 98.3501 69.9163 96.99C71.2507 95.6299 73.06 94.8648 74.9472 94.8625H382.01C383.929 94.8648 385.77 95.6431 387.128 97.0267C388.485 98.4104 389.249 100.286 389.251 102.243V287.064C389.248 289.69 388.223 292.207 386.402 294.063C384.58 295.92 382.111 296.964 379.535 296.967Z" fill="#F2F2F2"></path>
<path d="M86.9671 287.064H370.113C372.612 287.064 375.008 286.053 376.775 284.252C378.542 282.451 379.535 280.008 379.535 277.461V120.487C379.535 117.94 378.542 115.497 376.775 113.697C375.008 111.896 372.612 110.884 370.113 110.884H86.9671C84.4683 110.884 82.0718 111.896 80.3049 113.697C78.538 115.497 77.5453 117.94 77.5453 120.487V277.461C77.5453 280.008 78.538 282.451 80.3049 284.252C82.0718 286.053 84.4683 287.064 86.9671 287.064Z" fill="white"></path>
<path d="M389.116 101.551H67.6928V96.5096C67.6965 93.8753 68.7253 91.3502 70.5535 89.4881C72.3816 87.6259 74.8598 86.579 77.4443 86.5768H379.364C381.949 86.5789 384.427 87.6259 386.255 89.488C388.083 91.3502 389.112 93.8753 389.116 96.5096V101.551Z" fill="#246DA8"></path>
<path d="M85.4147 96.6498C86.8078 96.6498 87.937 95.4988 87.937 94.079C87.937 92.6592 86.8078 91.5082 85.4147 91.5082C84.0217 91.5082 82.8924 92.6592 82.8924 94.079C82.8924 95.4988 84.0217 96.6498 85.4147 96.6498Z" fill="white"></path>
<path d="M94.9888 96.6498C96.3819 96.6498 97.5112 95.4988 97.5112 94.079C97.5112 92.6592 96.3819 91.5082 94.9888 91.5082C93.5958 91.5082 92.4665 92.6592 92.4665 94.079C92.4665 95.4988 93.5958 96.6498 94.9888 96.6498Z" fill="white"></path>
<path d="M104.563 96.6498C105.956 96.6498 107.085 95.4988 107.085 94.079C107.085 92.6592 105.956 91.5082 104.563 91.5082C103.17 91.5082 102.041 92.6592 102.041 94.079C102.041 95.4988 103.17 96.6498 104.563 96.6498Z" fill="white"></path>
<path d="M237.375 253.022H212.054C210.571 253.02 209.149 252.419 208.1 251.35C207.051 250.281 206.462 248.832 206.46 247.32V221.512C206.462 220.001 207.051 218.551 208.1 217.483C209.149 216.414 210.571 215.812 212.054 215.811H237.375C238.858 215.812 240.28 216.414 241.329 217.483C242.377 218.551 242.967 220.001 242.969 221.512V247.32C242.967 248.832 242.377 250.281 241.329 251.35C240.28 252.419 238.858 253.02 237.375 253.022V253.022ZM212.054 217.011C210.883 217.012 209.76 217.487 208.933 218.331C208.105 219.175 207.639 220.319 207.638 221.512V247.32C207.639 248.513 208.105 249.657 208.933 250.501C209.76 251.345 210.883 251.82 212.054 251.821H237.375C238.546 251.82 239.668 251.345 240.496 250.501C241.324 249.657 241.79 248.513 241.791 247.32V221.512C241.79 220.319 241.324 219.175 240.496 218.331C239.668 217.487 238.546 217.012 237.375 217.011H212.054Z" fill="#CCCCCC"></path>
<path d="M232.37 245.819H217.059C216.591 245.819 216.142 245.629 215.811 245.292C215.479 244.954 215.293 244.496 215.293 244.019V224.813C215.293 224.336 215.479 223.878 215.811 223.541C216.142 223.203 216.591 223.013 217.059 223.013H228.153C228.555 223.013 228.946 223.153 229.26 223.41L233.476 226.863C233.683 227.031 233.849 227.245 233.963 227.488C234.078 227.731 234.137 227.997 234.136 228.267V244.019C234.136 244.496 233.949 244.954 233.618 245.292C233.287 245.629 232.838 245.819 232.37 245.819V245.819ZM217.059 224.213C216.903 224.213 216.753 224.277 216.643 224.389C216.533 224.502 216.471 224.654 216.47 224.813V244.019C216.471 244.178 216.533 244.331 216.643 244.443C216.753 244.556 216.903 244.619 217.059 244.619H232.37C232.526 244.619 232.675 244.556 232.786 244.443C232.896 244.331 232.958 244.178 232.958 244.019V228.267C232.959 228.177 232.939 228.088 232.901 228.007C232.863 227.926 232.807 227.855 232.738 227.799L228.522 224.345C228.417 224.26 228.287 224.213 228.153 224.213H217.059Z" fill="#CCCCCC"></path>
<path d="M229.425 231.415H220.004C219.847 231.415 219.698 231.352 219.587 231.24C219.477 231.127 219.415 230.974 219.415 230.815C219.415 230.656 219.477 230.503 219.587 230.391C219.698 230.278 219.847 230.215 220.004 230.215H229.425C229.582 230.215 229.731 230.278 229.842 230.391C229.952 230.503 230.014 230.656 230.014 230.815C230.014 230.974 229.952 231.127 229.842 231.24C229.731 231.352 229.582 231.415 229.425 231.415Z" fill="#CCCCCC"></path>
<path d="M229.425 235.016H220.004C219.847 235.016 219.698 234.953 219.587 234.84C219.477 234.728 219.415 234.575 219.415 234.416C219.415 234.257 219.477 234.104 219.587 233.992C219.698 233.879 219.847 233.816 220.004 233.816H229.425C229.582 233.816 229.731 233.879 229.842 233.992C229.952 234.104 230.014 234.257 230.014 234.416C230.014 234.575 229.952 234.728 229.842 234.84C229.731 234.953 229.582 235.016 229.425 235.016Z" fill="#CCCCCC"></path>
<path d="M229.425 238.617H220.004C219.847 238.617 219.698 238.554 219.587 238.442C219.477 238.329 219.415 238.176 219.415 238.017C219.415 237.858 219.477 237.705 219.587 237.593C219.698 237.48 219.847 237.417 220.004 237.417H229.425C229.582 237.417 229.731 237.48 229.842 237.593C229.952 237.705 230.014 237.858 230.014 238.017C230.014 238.176 229.952 238.329 229.842 238.442C229.731 238.554 229.582 238.617 229.425 238.617Z" fill="#CCCCCC"></path>
<path d="M297.438 253.022H272.118C270.634 253.02 269.212 252.419 268.164 251.35C267.115 250.281 266.525 248.832 266.523 247.32V221.512C266.525 220.001 267.115 218.551 268.164 217.483C269.212 216.414 270.634 215.812 272.118 215.811H297.438C298.922 215.812 300.344 216.414 301.392 217.483C302.441 218.551 303.031 220.001 303.033 221.512V247.32C303.031 248.832 302.441 250.281 301.392 251.35C300.344 252.419 298.922 253.02 297.438 253.022V253.022ZM272.118 217.011C270.947 217.012 269.824 217.487 268.996 218.331C268.168 219.175 267.702 220.319 267.701 221.512V247.32C267.702 248.513 268.168 249.657 268.996 250.501C269.824 251.345 270.947 251.82 272.118 251.821H297.438C298.609 251.82 299.732 251.345 300.56 250.501C301.388 249.657 301.854 248.513 301.855 247.32V221.512C301.854 220.319 301.388 219.175 300.56 218.331C299.732 217.487 298.609 217.012 297.438 217.011H272.118Z" fill="#CCCCCC"></path>
<path d="M293.022 241.018H276.534C276.066 241.018 275.617 240.828 275.285 240.49C274.954 240.153 274.768 239.695 274.767 239.218V229.615C274.768 229.137 274.954 228.68 275.285 228.342C275.617 228.005 276.066 227.815 276.534 227.814H293.022C293.49 227.815 293.939 228.005 294.271 228.342C294.602 228.68 294.788 229.137 294.789 229.615V239.218C294.788 239.695 294.602 240.153 294.271 240.49C293.939 240.828 293.49 241.018 293.022 241.018V241.018ZM276.534 229.015C276.378 229.015 276.228 229.078 276.118 229.191C276.007 229.303 275.945 229.456 275.945 229.615V239.218C275.945 239.377 276.007 239.529 276.118 239.642C276.228 239.754 276.378 239.818 276.534 239.818H293.022C293.178 239.818 293.328 239.754 293.438 239.642C293.549 239.529 293.611 239.377 293.611 239.218V229.615C293.611 229.456 293.549 229.303 293.438 229.191C293.328 229.078 293.178 229.015 293.022 229.015H276.534Z" fill="#CCCCCC"></path>
<path d="M284.778 236C284.447 236 284.123 235.906 283.842 235.728L275.044 230.124C274.912 230.039 274.818 229.905 274.783 229.75C274.748 229.595 274.775 229.432 274.858 229.297C274.941 229.162 275.072 229.066 275.224 229.031C275.376 228.995 275.536 229.022 275.669 229.106L284.466 234.71C284.56 234.769 284.668 234.8 284.778 234.8C284.889 234.8 284.997 234.769 285.09 234.71L293.887 229.106C294.02 229.022 294.18 228.995 294.332 229.031C294.484 229.066 294.615 229.162 294.698 229.297C294.781 229.432 294.808 229.595 294.773 229.75C294.738 229.905 294.644 230.039 294.512 230.124L285.715 235.728C285.434 235.906 285.109 236 284.778 236V236Z" fill="#CCCCCC"></path>
<path d="M177.311 253.022H151.99C150.507 253.02 149.085 252.419 148.037 251.35C146.988 250.281 146.398 248.832 146.396 247.32V221.512C146.398 220.001 146.988 218.551 148.037 217.483C149.085 216.414 150.507 215.812 151.99 215.811H177.311C178.794 215.812 180.216 216.414 181.265 217.483C182.314 218.551 182.904 220.001 182.905 221.512V247.32C182.904 248.832 182.314 250.281 181.265 251.35C180.216 252.419 178.794 253.02 177.311 253.022V253.022ZM151.99 217.011C150.819 217.012 149.697 217.487 148.869 218.331C148.041 219.175 147.575 220.319 147.574 221.512V247.32C147.575 248.513 148.041 249.657 148.869 250.501C149.697 251.345 150.819 251.82 151.99 251.821H177.311C178.482 251.82 179.605 251.345 180.433 250.501C181.261 249.657 181.726 248.513 181.728 247.32V221.512C181.726 220.319 181.261 219.175 180.433 218.331C179.605 217.487 178.482 217.012 177.311 217.011H151.99Z" fill="#CCCCCC"></path>
<path d="M172.895 241.018H156.407C155.938 241.018 155.489 240.828 155.158 240.49C154.827 240.153 154.641 239.695 154.64 239.218V229.615C154.641 229.137 154.827 228.68 155.158 228.342C155.489 228.005 155.938 227.815 156.407 227.814H172.895C173.363 227.815 173.812 228.005 174.143 228.342C174.475 228.68 174.661 229.137 174.661 229.615V239.218C174.661 239.695 174.475 240.153 174.143 240.49C173.812 240.828 173.363 241.018 172.895 241.018V241.018ZM156.407 229.015C156.251 229.015 156.101 229.078 155.991 229.191C155.88 229.303 155.818 229.456 155.818 229.615V239.218C155.818 239.377 155.88 239.529 155.991 239.642C156.101 239.754 156.251 239.818 156.407 239.818H172.895C173.051 239.818 173.201 239.754 173.311 239.642C173.421 239.529 173.484 239.377 173.484 239.218V229.615C173.484 229.456 173.421 229.303 173.311 229.191C173.201 229.078 173.051 229.015 172.895 229.015H156.407Z" fill="#CCCCCC"></path>
<path d="M170.282 241.018H158.431C158.225 241.018 158.021 240.963 157.842 240.857C157.663 240.752 157.515 240.601 157.411 240.418C157.308 240.236 157.253 240.028 157.254 239.818C157.254 239.607 157.308 239.4 157.412 239.218L160.981 232.916C161.084 232.733 161.233 232.582 161.412 232.476C161.591 232.371 161.794 232.316 162.001 232.316C162.208 232.316 162.411 232.371 162.59 232.476C162.769 232.582 162.918 232.733 163.021 232.916L165.326 236.986L166.662 234.628C166.765 234.445 166.914 234.294 167.093 234.188C167.272 234.083 167.475 234.028 167.682 234.028C167.889 234.028 168.092 234.083 168.271 234.188C168.45 234.294 168.598 234.445 168.702 234.628L171.302 239.218C171.405 239.4 171.459 239.607 171.459 239.818C171.459 240.029 171.405 240.236 171.302 240.418C171.198 240.601 171.05 240.752 170.87 240.857C170.691 240.963 170.488 241.018 170.282 241.018H170.282ZM170.282 239.818L167.682 235.228L165.836 238.486C165.785 238.577 165.71 238.653 165.621 238.706C165.531 238.759 165.43 238.786 165.326 238.786V238.786C165.223 238.786 165.121 238.759 165.032 238.706C164.942 238.653 164.868 238.577 164.816 238.486L162.001 233.516L158.431 239.818H170.282Z" fill="#CCCCCC"></path>
<path d="M171.128 232.616C171.779 232.616 172.306 232.078 172.306 231.415C172.306 230.752 171.779 230.215 171.128 230.215C170.478 230.215 169.951 230.752 169.951 231.415C169.951 232.078 170.478 232.616 171.128 232.616Z" fill="#CCCCCC"></path>
<path d="M452.729 389.004L445.51 389.003L442.075 360.622L452.73 360.623L452.729 389.004Z" fill="#FFB8B8"></path>
<path d="M454.57 396.136L431.292 396.136V395.836C431.292 394.623 431.527 393.422 431.982 392.302C432.437 391.181 433.105 390.163 433.946 389.306C434.787 388.448 435.786 387.768 436.886 387.304C437.985 386.84 439.163 386.601 440.353 386.601H440.353L454.571 386.602L454.57 396.136Z" fill="#2F2E41"></path>
<path d="M482.172 389.004L474.953 389.003L471.518 360.622L482.173 360.623L482.172 389.004Z" fill="#FFB8B8"></path>
<path d="M484.013 396.136L460.735 396.136V395.836C460.735 394.623 460.97 393.422 461.425 392.302C461.88 391.181 462.548 390.163 463.389 389.306C464.23 388.448 465.229 387.768 466.328 387.304C467.428 386.84 468.606 386.601 469.796 386.601H469.796L484.014 386.602L484.013 396.136Z" fill="#2F2E41"></path>
<path d="M480.008 376.701L473.322 374.628C472.823 374.474 472.381 374.173 472.049 373.764C471.717 373.355 471.512 372.855 471.457 372.327L465.224 312.114C465.219 312.041 465.187 311.973 465.135 311.923C465.083 311.873 465.014 311.845 464.942 311.845C464.87 311.838 464.799 311.86 464.743 311.906C464.687 311.952 464.65 312.018 464.641 312.091L454.2 370.428C454.137 370.781 454.005 371.119 453.812 371.42C453.619 371.721 453.368 371.98 453.076 372.181C452.783 372.383 452.454 372.522 452.108 372.592C451.761 372.662 451.405 372.66 451.059 372.588L442.514 370.794C441.887 370.66 441.329 370.301 440.941 369.781C440.554 369.262 440.363 368.617 440.405 367.966L446.756 272.35L489.824 267.614L483.424 374.281C483.382 374.967 483.086 375.611 482.596 376.082C482.105 376.553 481.457 376.817 480.783 376.818C480.521 376.818 480.259 376.779 480.008 376.701V376.701Z" fill="#2F2E41"></path>
<path d="M479.967 189.084C487.955 189.084 494.43 182.484 494.43 174.343C494.43 166.202 487.955 159.602 479.967 159.602C471.979 159.602 465.504 166.202 465.504 174.343C465.504 182.484 471.979 189.084 479.967 189.084Z" fill="#FFB8B8"></path>
<path d="M446.689 272.912L456.028 212.984C456.524 209.797 457.681 206.755 459.421 204.06C461.16 201.365 463.443 199.078 466.118 197.352C468.792 195.626 471.796 194.5 474.931 194.05C478.065 193.599 481.258 193.834 484.296 194.739V194.739C489.608 196.305 494.157 199.833 497.054 204.634C499.95 209.436 500.987 215.165 499.96 220.703L490.191 274.222L446.689 272.912Z" fill="#246DA8"></path>
<path d="M483.96 283.634C484.682 283.148 485.291 282.507 485.744 281.755C486.197 281.003 486.482 280.159 486.58 279.282C486.678 278.405 486.587 277.517 486.312 276.681C486.037 275.844 485.585 275.079 484.988 274.44L494.643 255.383L483.77 256.566L476.269 274.481C475.281 275.573 474.721 276.997 474.695 278.482C474.668 279.968 475.177 281.411 476.125 282.54C477.073 283.668 478.394 284.402 479.838 284.604C481.282 284.806 482.749 284.461 483.96 283.635V283.634Z" fill="#FFB8B8"></path>
<path d="M486.027 271.079C485.493 271.002 484.995 270.761 484.598 270.388L480.904 266.909C480.505 266.531 480.229 266.038 480.115 265.495C480 264.953 480.051 264.387 480.261 263.875L487.644 246.039L486.597 210.797C486.747 209.664 487.116 208.573 487.68 207.585C488.245 206.597 488.995 205.732 489.888 205.04C490.781 204.348 491.798 203.842 492.883 203.551C493.968 203.26 495.098 203.19 496.21 203.344C497.321 203.499 498.392 203.875 499.36 204.452C500.329 205.028 501.177 205.793 501.855 206.704C502.533 207.615 503.029 208.652 503.313 209.758C503.598 210.864 503.666 212.016 503.513 213.149L505.304 235.303C505.848 242.027 503.978 248.723 500.041 254.146L488.527 270.01C488.306 270.315 488.024 270.569 487.7 270.756C487.375 270.942 487.016 271.057 486.646 271.093C486.44 271.113 486.232 271.108 486.027 271.079V271.079Z" fill="#246DA8"></path>
<path d="M396.679 166.312C396.837 167.179 397.179 168.001 397.682 168.719C398.185 169.437 398.836 170.034 399.59 170.468C400.344 170.902 401.182 171.162 402.045 171.23C402.908 171.298 403.775 171.173 404.585 170.862L418.038 187.354L421.209 176.688L407.948 162.662C407.346 161.309 406.278 160.229 404.946 159.625C403.615 159.021 402.112 158.936 400.723 159.386C399.334 159.835 398.155 160.789 397.41 162.065C396.665 163.342 396.405 164.853 396.679 166.312V166.312Z" fill="#FFB8B8"></path>
<path d="M407.217 173.148C407.495 172.676 407.907 172.303 408.399 172.076L412.982 169.965C413.479 169.738 414.032 169.672 414.567 169.775C415.102 169.879 415.593 170.147 415.973 170.545L429.21 184.428L461.459 197.186C462.424 197.769 463.267 198.54 463.94 199.455C464.612 200.37 465.101 201.411 465.379 202.519C465.656 203.627 465.717 204.78 465.557 205.912C465.397 207.043 465.02 208.132 464.446 209.115C463.873 210.098 463.116 210.956 462.217 211.64C461.319 212.325 460.296 212.822 459.209 213.103C458.122 213.385 456.991 213.445 455.88 213.281C454.77 213.116 453.703 212.731 452.739 212.145L432.025 205.189C425.738 203.078 420.417 198.712 417.052 192.902L407.208 175.911C407.019 175.584 406.899 175.22 406.857 174.843C406.815 174.466 406.851 174.084 406.963 173.723C407.025 173.521 407.111 173.329 407.217 173.148V173.148Z" fill="#246DA8"></path>
<path opacity="0.1" d="M491.698 225.457L491.109 244.663L480.261 263.875L489.319 242.465L491.698 225.457Z" fill="black"></path>
<path d="M478.31 177.113C477.402 177.234 476.481 177.014 475.72 176.495C474.958 175.976 474.408 175.193 474.17 174.291C473.941 173.254 473.439 172.299 472.717 171.53C471.996 170.761 471.084 170.206 470.077 169.926C467.424 169.308 464.181 170.581 462.237 168.532C461.821 168.064 461.52 167.503 461.358 166.893C461.197 166.283 461.18 165.643 461.309 165.026C461.667 163.035 463.065 161.531 464.585 160.328C467.785 157.808 471.658 156.333 475.695 156.096C477.784 156.034 479.876 156.14 481.949 156.413C484.12 156.553 486.267 156.953 488.346 157.605C490.715 158.516 492.82 160.021 494.467 161.98C496.114 163.94 497.249 166.291 497.769 168.816C498.244 171.349 498.171 173.958 497.555 176.459C496.939 178.96 495.795 181.295 494.202 183.299C492.296 185.718 489.837 187.626 487.041 188.856C486.375 189.176 485.612 189.215 484.918 188.965C483.176 188.26 483.461 186.061 484.255 184.595C485.105 183.025 486.412 181.506 485.729 179.596C485.386 178.71 484.729 177.989 483.887 177.576C482.156 176.676 480.22 176.889 478.359 177.108L478.31 177.113Z" fill="#2F2E41"></path>
<path d="M391.846 185.438H212.833C210.257 185.435 207.787 184.391 205.966 182.534C204.144 180.678 203.12 178.161 203.117 175.535V136.524C203.12 133.898 204.144 131.381 205.966 129.524C207.787 127.668 210.257 126.624 212.833 126.621H391.846C394.422 126.624 396.892 127.668 398.713 129.525C400.535 131.381 401.559 133.898 401.562 136.524V175.535C401.559 178.161 400.535 180.678 398.713 182.534C396.892 184.391 394.422 185.435 391.846 185.438V185.438Z" fill="white"></path>
<path d="M391.846 185.738H212.833C210.179 185.735 207.634 184.659 205.758 182.746C203.881 180.834 202.825 178.24 202.822 175.535V136.524C202.825 133.819 203.881 131.225 205.758 129.312C207.634 127.4 210.179 126.324 212.833 126.321H391.846C394.5 126.324 397.044 127.4 398.921 129.312C400.798 131.225 401.854 133.819 401.856 136.524V175.535C401.854 178.24 400.798 180.834 398.921 182.746C397.044 184.659 394.5 185.735 391.846 185.738ZM212.833 127.521C210.491 127.524 208.246 128.473 206.59 130.161C204.934 131.849 204.003 134.137 204 136.524V175.535C204.003 177.922 204.934 180.21 206.59 181.898C208.246 183.586 210.491 184.535 212.833 184.538H391.846C394.188 184.535 396.433 183.586 398.089 181.898C399.745 180.21 400.676 177.922 400.679 175.535V136.524C400.676 134.137 399.745 131.849 398.089 130.161C396.433 128.473 394.188 127.524 391.846 127.521H212.833Z" fill="#3F3D56"></path>
<path d="M370.058 175.835H234.621C232.045 175.832 229.575 174.788 227.754 172.931C225.932 171.075 224.907 168.558 224.905 165.932V145.526C224.907 142.901 225.932 140.384 227.754 138.527C229.575 136.671 232.045 135.626 234.621 135.623H370.058C372.634 135.626 375.104 136.671 376.925 138.527C378.747 140.384 379.771 142.901 379.774 145.526V165.932C379.771 168.558 378.747 171.075 376.925 172.931C375.104 174.788 372.634 175.832 370.058 175.835V175.835Z" fill="#F2F2F2"></path>
<path d="M263.766 164.837C270.183 164.837 275.386 159.534 275.386 152.994C275.386 146.453 270.183 141.151 263.766 141.151C257.349 141.151 252.147 146.453 252.147 152.994C252.147 159.534 257.349 164.837 263.766 164.837Z" fill="#246DA8"></path>
<path d="M361.642 174.64L345.24 160.62L329.122 146.842C328.697 146.479 328.159 146.28 327.604 146.281C327.049 146.282 326.512 146.483 326.088 146.848L310.022 160.689L306.098 164.07L300.181 159.012L282.199 143.641C281.774 143.278 281.236 143.079 280.681 143.08C280.126 143.081 279.589 143.282 279.165 143.647L261.241 159.089L243.036 174.774C242.943 174.853 242.877 174.959 242.846 175.078C242.815 175.197 242.821 175.323 242.863 175.439C242.904 175.554 242.98 175.654 243.079 175.724C243.178 175.795 243.296 175.832 243.417 175.832L280.743 175.759L292.557 175.736L292.442 175.835L327.66 175.766L361.264 175.7C361.385 175.7 361.503 175.662 361.602 175.591C361.701 175.52 361.776 175.42 361.817 175.305C361.858 175.189 361.863 175.063 361.832 174.944C361.801 174.825 361.734 174.719 361.642 174.64Z" fill="#3F3D56"></path>
<path d="M515.411 397H402.35C402.194 397 402.044 396.937 401.934 396.824C401.823 396.712 401.761 396.559 401.761 396.4C401.761 396.241 401.823 396.088 401.934 395.975C402.044 395.863 402.194 395.8 402.35 395.8H515.411C515.567 395.8 515.717 395.863 515.827 395.975C515.938 396.088 516 396.241 516 396.4C516 396.559 515.938 396.712 515.827 396.824C515.717 396.937 515.567 397 515.411 397Z" fill="#CCCCCC"></path>
<path d="M355.704 79.1706C355.233 78.3916 354.612 77.7185 353.878 77.1922C353.144 76.666 352.313 76.2976 351.434 76.1097C351.112 76.0407 350.786 75.9986 350.457 75.9836L305.592 35.0996C304.71 34.1764 303.535 33.604 302.276 33.4852C302.028 33.4561 301.778 33.4481 301.529 33.4612C300.493 33.5091 299.494 33.8634 298.654 34.4808C297.813 35.0982 297.167 35.9519 296.795 36.9375C296.422 37.9231 296.34 38.9979 296.557 40.0305C296.775 41.0631 297.283 42.0088 298.019 42.7519L315.196 58.0144L343.402 83.0717C343.425 83.5436 343.494 84.0121 343.608 84.4701C343.946 85.7971 344.671 86.988 345.688 87.8852C346.705 88.7823 347.966 89.3433 349.303 89.4936C350.522 89.6387 351.757 89.4307 352.865 88.8934C353.744 88.4744 354.524 87.8663 355.15 87.1109C355.215 87.0329 355.274 86.9608 355.333 86.8768C356.156 85.7832 356.633 84.4596 356.699 83.0827C356.765 81.7058 356.418 80.3411 355.704 79.1706H355.704Z" fill="#FFB8B8"></path>
<path d="M278.964 118.572L278.546 101.251L278.192 86.8769L277.951 76.8179L277.474 57.2102C277.379 56.1604 276.987 55.1613 276.345 54.3348C275.703 53.5084 274.838 52.8904 273.858 52.5563C272.877 52.2221 271.821 52.1863 270.821 52.4532C269.82 52.7201 268.917 53.2782 268.223 54.0593C268.059 54.2377 267.911 54.4305 267.781 54.6354C267.056 55.6937 266.73 56.9829 266.862 58.2665L267.911 86.8769L268.435 101.251L269.106 119.586C268.912 119.856 268.737 120.139 268.582 120.433C268.163 121.242 267.91 122.13 267.838 123.042C267.766 123.954 267.877 124.871 268.164 125.738C268.463 126.648 268.948 127.482 269.586 128.186C270.225 128.891 271.003 129.45 271.868 129.826C272.734 130.201 273.668 130.386 274.609 130.368C275.549 130.349 276.476 130.127 277.326 129.717C278.314 129.241 279.172 128.524 279.824 127.63C280.476 126.736 280.901 125.692 281.063 124.59C281.225 123.488 281.118 122.363 280.752 121.313C280.386 120.264 279.771 119.322 278.964 118.572H278.964Z" fill="#FFB8B8"></path>
<path d="M319.359 69.5078L315.196 58.0144L308.459 39.397C307.973 38.0424 307.194 36.8167 306.18 35.811C305.166 34.8052 303.942 34.0452 302.6 33.5873C302.494 33.5512 302.383 33.5152 302.276 33.4852C300.977 33.0831 299.607 32.9725 298.261 33.161C296.915 33.3496 295.625 33.8328 294.48 34.5775L271.791 49.2458C269.713 50.5861 268.228 52.6971 267.649 55.1329C267.07 57.5688 267.442 60.1386 268.688 62.2996C271.525 67.3002 274.617 72.1462 277.951 76.8179C280.595 80.485 285.518 80.8751 286.372 86.8768H303.101L320.037 71.3803L319.359 69.5078Z" fill="#CCCCCC"></path>
<path d="M59.5717 209.974C67.1075 209.974 73.2165 203.748 73.2165 196.067C73.2165 188.386 67.1075 182.16 59.5717 182.16C52.0358 182.16 45.9268 188.386 45.9268 196.067C45.9268 203.748 52.0358 209.974 59.5717 209.974Z" fill="#A0616A"></path>
<path d="M93.0699 186.494C93.2043 186.603 93.3346 186.719 93.4608 186.841C94.0877 187.443 94.5827 188.173 94.9134 188.983C95.2441 189.793 95.403 190.666 95.3798 191.543C95.3567 192.421 95.1518 193.283 94.7788 194.074C94.4058 194.865 93.8729 195.567 93.2152 196.134C93.0619 196.265 92.902 196.388 92.736 196.502L93.6595 228.278C93.6858 229.318 93.3823 230.34 92.7941 231.19C92.2059 232.041 91.3643 232.675 90.3943 233L90.338 233.012L65.0237 235.76C64.3355 235.834 63.6396 235.769 62.9762 235.568C62.3128 235.367 61.6951 235.034 61.1586 234.588C60.6222 234.143 60.1777 233.593 59.8509 232.971C59.524 232.349 59.3212 231.668 59.2542 230.966C59.1873 230.264 59.2574 229.555 59.4606 228.881C59.6639 228.206 59.9962 227.58 60.4383 227.037C60.8804 226.494 61.4237 226.046 62.0367 225.719C62.6496 225.391 63.3202 225.191 64.0096 225.129L82.0548 223.509L85.1755 195.99C84.9714 195.806 84.7802 195.608 84.6034 195.396C83.6249 194.216 83.1117 192.707 83.1635 191.163C83.2152 189.619 83.8282 188.149 84.8834 187.039C85.9386 185.93 87.3607 185.26 88.8735 185.159C90.3863 185.058 91.8819 185.534 93.0699 186.494H93.0699Z" fill="#A0616A"></path>
<path d="M82.0445 389.619H88.8558L92.0957 362.843H82.0433L82.0445 389.619Z" fill="#A0616A"></path>
<path d="M80.3074 387.352L93.7205 387.352H93.721C94.8435 387.352 95.9551 387.577 96.9922 388.015C98.0292 388.453 98.9716 389.094 99.7653 389.903C100.559 390.712 101.189 391.673 101.618 392.73C102.048 393.787 102.269 394.92 102.269 396.064V396.347L80.3078 396.348L80.3074 387.352Z" fill="#2F2E41"></path>
<path d="M14.3481 380.021L20.2002 383.572L36.425 362.255L27.7876 357.014L14.3481 380.021Z" fill="#A0616A"></path>
<path d="M13.993 377.167L25.5179 384.161L25.5184 384.162C26.4829 384.747 27.3248 385.52 27.9961 386.437C28.6675 387.354 29.155 388.397 29.4309 389.506C29.7068 390.615 29.7657 391.768 29.6042 392.9C29.4427 394.033 29.064 395.121 28.4897 396.104L28.3475 396.348L9.47787 384.897L13.993 377.167Z" fill="#2F2E41"></path>
<path d="M90.4627 380.161H82.836C82.2185 380.162 81.6225 379.93 81.1633 379.509C80.7042 379.088 80.4144 378.509 80.3502 377.883L72.6613 304.219C72.6419 304.033 72.5632 303.859 72.4373 303.724C72.3114 303.589 72.1453 303.499 71.9647 303.47C71.784 303.44 71.5989 303.472 71.4377 303.561C71.2766 303.649 71.1485 303.789 71.0731 303.959L57.2023 335.263L32.6448 376.077C32.3269 376.6 31.8348 376.989 31.2586 377.172C30.6823 377.356 30.0604 377.322 29.5068 377.076L19.6963 372.677C19.3719 372.532 19.0816 372.317 18.8446 372.049C18.6076 371.78 18.4293 371.463 18.3216 371.119C18.2138 370.775 18.1791 370.411 18.2197 370.053C18.2603 369.694 18.3752 369.348 18.557 369.038L41.1321 330.511L48.0557 298.05C45.8781 283.973 55.2133 263.045 55.3079 262.834L55.3542 262.732L81.0682 252.489L81.1971 252.649C91.338 286.568 97.5173 323.069 92.9547 377.827C92.8984 378.462 92.612 379.053 92.1512 379.485C91.6905 379.916 91.0885 380.158 90.4627 380.161V380.161Z" fill="#2F2E41"></path>
<path d="M54.3182 266.162L54.1985 265.906C54.1412 265.783 48.4235 253.492 44.0159 240.355C43.1688 237.815 42.8486 235.123 43.0755 232.45C43.3025 229.777 44.0715 227.181 45.3341 224.827C46.6131 222.448 48.3629 220.366 50.4726 218.713C52.5822 217.059 55.0058 215.87 57.5898 215.221V215.221C62.0757 214.125 66.7986 214.708 70.8981 216.864C74.9975 219.02 78.2006 222.605 79.9239 226.967C83.4201 235.877 82.3058 245.389 81.2572 252.868L81.2364 253.018L81.1026 253.084L54.3182 266.162Z" fill="#3F3D56"></path>
<path d="M76.1156 188.211H54.4492V178.585C59.2048 176.66 63.8583 175.022 66.6713 178.585C69.1761 178.585 71.5783 179.599 73.3494 181.405C75.1206 183.21 76.1156 185.658 76.1156 188.211V188.211Z" fill="#2F2E41"></path>
<path d="M53.2497 176.886C40.2971 176.886 36.6717 193.434 36.6717 202.769C36.6717 207.976 38.9818 209.838 42.6118 210.468L43.8938 203.499L46.8964 210.768C47.9161 210.773 48.9873 210.753 50.0979 210.732L51.116 208.595L53.3862 210.693C62.4786 210.707 69.8274 212.058 69.8274 202.769C69.8274 193.434 66.648 176.886 53.2497 176.886Z" fill="#2F2E41"></path>
<path d="M113.65 397H0.588858C0.432683 397 0.282905 396.937 0.172472 396.824C0.0620398 396.712 0 396.559 0 396.4C0 396.241 0.0620398 396.088 0.172472 395.975C0.282905 395.863 0.432683 395.8 0.588858 395.8H113.65C113.806 395.8 113.956 395.863 114.066 395.975C114.177 396.088 114.239 396.241 114.239 396.4C114.239 396.559 114.177 396.712 114.066 396.824C113.956 396.937 113.806 397 113.65 397Z" fill="#CCCCCC"></path>
<path d="M115.776 199.542H90.4547C88.9715 199.54 87.5496 198.939 86.5009 197.87C85.4522 196.801 84.8622 195.352 84.8605 193.841V168.033C84.8622 166.521 85.4522 165.072 86.5009 164.003C87.5496 162.934 88.9715 162.333 90.4547 162.331H115.776C117.259 162.333 118.681 162.934 119.729 164.003C120.778 165.072 121.368 166.521 121.37 168.033V193.841C121.368 195.352 120.778 196.801 119.729 197.87C118.681 198.939 117.259 199.54 115.776 199.542V199.542Z" fill="white"></path>
<path d="M115.776 199.542H90.4547C88.9715 199.54 87.5496 198.939 86.5009 197.87C85.4522 196.801 84.8622 195.352 84.8605 193.841V168.033C84.8622 166.521 85.4522 165.072 86.5009 164.003C87.5496 162.934 88.9715 162.333 90.4547 162.331H115.776C117.259 162.333 118.681 162.934 119.729 164.003C120.778 165.072 121.368 166.521 121.37 168.033V193.841C121.368 195.352 120.778 196.801 119.729 197.87C118.681 198.939 117.259 199.54 115.776 199.542V199.542ZM90.4547 163.532C89.2838 163.533 88.1612 164.008 87.3332 164.852C86.5053 165.695 86.0396 166.84 86.0383 168.033V193.841C86.0396 195.034 86.5053 196.178 87.3332 197.022C88.1612 197.866 89.2838 198.341 90.4547 198.342H115.776C116.947 198.341 118.069 197.866 118.897 197.022C119.725 196.178 120.191 195.034 120.192 193.841V168.033C120.191 166.84 119.725 165.695 118.897 164.852C118.069 164.008 116.947 163.533 115.776 163.532H90.4547Z" fill="#3F3D56"></path>
<path d="M111.359 189.039H94.8711C94.4028 189.038 93.9537 188.849 93.6225 188.511C93.2913 188.173 93.1051 187.716 93.1046 187.238V174.635C93.1051 174.157 93.2913 173.7 93.6225 173.362C93.9537 173.025 94.4028 172.835 94.8711 172.834H99.5127C99.8146 172.833 100.112 172.911 100.375 173.061C100.639 173.211 100.86 173.428 101.017 173.691L102.312 175.835H111.359C111.828 175.836 112.277 176.026 112.608 176.363C112.939 176.701 113.125 177.158 113.126 177.636V187.238C113.125 187.716 112.939 188.173 112.608 188.511C112.277 188.849 111.828 189.038 111.359 189.039V189.039Z" fill="#246DA8"></path>
<path d="M110.823 195.406C110.905 195.56 110.981 195.718 111.051 195.881C111.4 196.683 111.578 197.552 111.574 198.43C111.57 199.307 111.385 200.174 111.029 200.974C110.674 201.773 110.157 202.487 109.512 203.069C108.867 203.65 108.109 204.086 107.287 204.348C107.096 204.409 106.901 204.459 106.705 204.498L95.458 234.15C95.0862 235.119 94.4177 235.94 93.5518 236.491C92.6859 237.043 91.6686 237.295 90.651 237.21L90.5945 237.199L66.2178 229.72C65.555 229.516 64.9383 229.181 64.4034 228.733C63.8684 228.286 63.4258 227.734 63.101 227.112C62.7763 226.489 62.5758 225.806 62.5113 225.104C62.4467 224.401 62.5193 223.693 62.7249 223.019C62.9305 222.346 63.265 221.72 63.7091 221.179C64.1532 220.638 64.698 220.192 65.3122 219.867C65.9264 219.541 66.5977 219.343 67.2874 219.284C67.9771 219.225 68.6715 219.305 69.3305 219.521L86.5784 225.165L99.9316 201.037C99.8135 200.786 99.7129 200.528 99.6305 200.263C99.1781 198.788 99.2797 197.194 99.9153 195.792C100.551 194.389 101.675 193.277 103.07 192.672C104.465 192.067 106.031 192.011 107.464 192.517C108.896 193.022 110.093 194.052 110.823 195.406H110.823Z" fill="#A0616A"></path>
<path d="M427.709 25.581C428.766 25.2407 429.835 24.9114 430.898 24.5876C431.554 24.39 432.226 24.2692 432.843 23.9344C433.012 23.8411 433.142 23.6161 433.352 23.671H433.346C433.527 23.5777 433.696 23.446 433.889 23.4021C434.612 23.2264 435.342 22.9191 436.065 22.8477C436.094 22.8422 436.116 22.7819 436.156 22.7709C436.348 22.727 437.049 22.6062 437.479 22.4745C438.48 22.1727 439.492 21.9092 440.611 22.03C440.786 22.0464 443.099 21.8159 443.427 23.0124C443.766 24.2637 441.748 25.2077 441.459 25.2297C440.764 25.2901 440.012 25.1803 439.413 25.57C438.531 26.1408 437.519 26.2231 436.569 26.5414C435.715 26.8268 434.827 26.9915 433.979 27.2878C433.182 27.5677 432.441 28.0507 431.621 28.2538C430.915 28.4294 430.123 28.3032 429.388 28.3745C429.213 28.391 429.077 28.6654 428.891 28.6929C428.738 28.7148 428.483 28.7752 428.303 28.7093C428.223 28.6819 428.144 28.6435 428.093 28.7038C427.862 28.9837 425.43 29.2911 425.046 27.8312C424.661 26.4042 426.793 25.8773 427.709 25.581Z" fill="black"></path>
<path d="M431.185 41.7282C432.13 41.6898 433.068 41.6624 434.012 41.6404C434.589 41.6294 435.166 41.6953 435.748 41.5416C435.906 41.4977 436.07 41.3166 436.229 41.4318C436.398 41.3934 436.568 41.3111 436.732 41.3221C437.365 41.3495 438.027 41.2562 438.632 41.3825C438.654 41.3879 438.688 41.3331 438.722 41.3331C438.892 41.344 439.485 41.4154 439.87 41.4099C440.758 41.3934 441.64 41.4154 442.51 41.8325C442.646 41.8984 444.574 42.299 444.54 43.5449C444.506 44.8346 442.635 45.1914 442.397 45.142C441.821 45.0103 441.238 44.6974 440.656 44.9115C439.802 45.2188 438.96 45.0212 438.112 45.0706C437.348 45.1146 436.591 45.0267 435.833 45.0816C435.121 45.131 434.397 45.3945 433.684 45.367C433.068 45.3396 432.463 45.0048 431.847 44.8785C431.7 44.8456 431.525 45.0761 431.366 45.0487C431.236 45.0267 431.016 45.0158 430.891 44.906C430.835 44.8566 430.778 44.7962 430.722 44.8401C430.462 45.0432 428.426 44.681 428.477 43.1717C428.511 41.6898 430.366 41.7612 431.185 41.7282Z" fill="black"></path>
<path d="M430.599 60.3512C431.747 60.6586 432.895 60.9769 434.037 61.3007C434.738 61.4983 435.411 61.7782 436.157 61.8386C436.361 61.8551 436.609 61.7398 436.768 61.9044H436.762C436.977 61.9264 437.203 61.9154 437.407 61.9813C438.159 62.2392 438.99 62.3929 439.68 62.7332C439.708 62.7442 439.764 62.7057 439.804 62.7222C440.002 62.7936 440.697 63.079 441.167 63.2107C442.241 63.518 443.298 63.8638 444.231 64.5828C444.378 64.6925 446.583 65.7902 446.176 66.9647C445.746 68.1886 443.389 67.8484 443.117 67.7057C442.456 67.3709 441.851 66.8605 441.087 66.844C439.962 66.8275 439.007 66.3281 437.972 66.0646C437.039 65.8286 436.151 65.4664 435.219 65.2414C434.342 65.0273 433.392 65.0164 432.539 64.731C431.804 64.484 431.17 63.9406 430.469 63.5894C430.305 63.5071 430.023 63.6552 429.836 63.5784C429.683 63.5125 429.423 63.4192 429.305 63.2656C429.254 63.1997 429.203 63.1229 429.118 63.1448C428.745 63.2491 426.393 62.1514 426.902 60.7244C427.388 59.3359 429.604 60.0878 430.599 60.3512Z" fill="black"></path>
<path d="M122.895 25.4675C123.06 25.6039 123.29 25.7645 123.574 25.9464C123.873 26.108 124.209 26.3186 124.62 26.4766C125.425 26.823 126.463 27.0853 127.609 27.1582C128.754 27.2372 129.996 27.1352 131.192 26.9224C132.389 26.7081 133.54 26.393 134.54 26.0787C135.698 25.72 136.851 25.2845 138.01 24.8684L139.737 24.2156L141.455 23.5408C143.739 22.628 145.999 21.6549 148.232 20.6247C152.697 18.5659 157.057 16.2855 161.291 13.8029C161.951 13.4087 162.84 12.8778 163.577 12.4766C164.315 12.0766 164.917 11.8289 165.022 12.032C165.234 12.452 163.915 13.6565 161.593 15.0382C158.781 16.7026 155.899 18.2631 152.971 19.7228C150.043 21.1797 147.075 22.5465 144.094 23.849C141.911 24.7964 139.7 25.6755 137.465 26.4886C135.237 27.3137 132.927 28.0677 130.496 28.3931C129.283 28.5506 128.036 28.5974 126.79 28.438C125.547 28.2812 124.307 27.9082 123.192 27.2826C122.625 26.9902 122.102 26.5971 121.628 26.1714C121.152 25.7417 120.719 25.2672 120.351 24.7441C119.983 24.2239 119.66 23.6701 119.404 23.0876C119.152 22.5032 118.955 21.894 118.823 21.2693C118.706 20.7086 118.653 20.1338 118.642 19.5601C118.651 18.9842 118.704 18.4092 118.825 17.8482C119.069 16.7274 119.531 15.6626 120.178 14.7264C120.499 14.2579 120.862 13.8148 121.272 13.4194C121.469 13.2132 121.69 13.0331 121.906 12.8464C122.134 12.6755 122.355 12.4925 122.599 12.3442C123.074 12.0232 123.59 11.7663 124.127 11.5515C124.669 11.3404 125.236 11.1924 125.81 11.1194C126.959 10.969 128.131 11.0649 129.231 11.3775C130.332 11.69 131.379 12.1901 132.305 12.8651C133.23 13.5372 134.049 14.3727 134.661 15.3581C135.274 16.3376 135.693 17.4658 135.789 18.6351C135.877 19.7181 135.76 20.8064 135.46 21.8347C135.164 22.8626 134.696 23.8235 134.141 24.7068C133.022 26.4799 131.557 27.9521 130.02 29.2806C129.634 29.6132 129.241 29.9352 128.844 30.2462L127.644 31.1616C127.242 31.4632 126.85 31.7808 126.437 32.0692L125.198 32.9331L124.579 33.3643C124.373 33.5099 124.167 33.6527 123.953 33.7848L122.679 34.5954L122.041 35.0014L121.723 35.2037L121.396 35.394L120.087 36.1484C114.035 39.5798 107.471 42.0849 100.698 43.6606C100.299 43.753 99.8858 43.877 99.4527 43.9674C99.0207 44.0663 98.5745 44.1668 98.127 44.2688C97.6767 44.3711 97.2243 44.4794 96.7702 44.5736C96.3147 44.6564 95.8618 44.7362 95.4179 44.8078C95.0512 44.8666 94.6231 44.9379 94.165 45.011C93.7058 45.0858 93.213 45.1312 92.7222 45.1937C92.2308 45.2505 91.7393 45.3073 91.279 45.3607C90.8189 45.4169 90.3866 45.4286 90.0191 45.456C89.3835 45.4929 88.7247 45.5265 88.1045 45.596C85.2461 45.8039 84.4899 45.6681 85.4245 45.1093C85.6289 44.9853 85.3834 44.8464 86.0622 44.739C86.0901 44.7331 86.1463 44.724 86.1717 44.7212C86.6852 44.6206 87.202 44.5481 87.7211 44.4954C88.2411 44.4384 88.7627 44.3697 89.286 44.328C89.8102 44.2819 90.3398 44.2453 90.8678 44.2073C91.3948 44.1481 91.9233 44.0901 92.452 44.022C97.6469 43.3676 102.748 42.0884 107.677 40.3633C108.294 40.1454 108.898 39.9018 109.509 39.6717L110.424 39.3225C110.73 39.2074 111.026 39.0691 111.327 38.9431L113.127 38.1721C113.722 37.9037 114.307 37.6136 114.898 37.3371L115.782 36.9169C116.075 36.7745 116.362 36.6158 116.65 36.4669L118.384 35.5559C118.952 35.2376 119.513 34.9042 120.081 34.5802L120.927 34.0897C121.207 33.9204 121.479 33.7431 121.755 33.5684L122.768 32.9267C123.105 32.7109 123.449 32.5059 123.774 32.2713L125.749 30.9077C126.393 30.4351 127.028 29.9478 127.668 29.4687C128.316 28.9942 128.92 28.4874 129.519 27.9712C130.115 27.4525 130.68 26.9042 131.223 26.3384C131.752 25.764 132.255 25.1668 132.702 24.5371C133.138 23.9015 133.532 23.2432 133.836 22.5507C134.129 21.855 134.35 21.1356 134.456 20.4017C134.496 19.9984 134.536 19.595 134.507 19.1906L134.498 18.8869L134.462 18.592C134.453 18.4929 134.431 18.3966 134.413 18.2999C134.391 18.2036 134.381 18.1032 134.353 18.0091C134.263 17.6228 134.124 17.2462 133.967 16.8787C133.803 16.5105 133.603 16.1592 133.385 15.8142L133.4 15.8368C132.421 14.4312 130.927 13.381 129.303 12.8284C127.767 12.2976 126.047 12.2518 124.571 12.8586C123.078 13.4671 121.797 14.6275 120.995 16.0412C120.787 16.3901 120.623 16.7641 120.475 17.1394C120.344 17.5213 120.22 17.9067 120.151 18.3019C120.003 19.0875 119.981 19.8937 120.113 20.6815C120.239 21.47 120.489 22.2363 120.842 22.947C121.199 23.6557 121.662 24.3028 122.199 24.8603C122.241 24.9043 122.288 24.952 122.339 25.0023C122.393 25.0478 122.45 25.0959 122.509 25.148C122.621 25.2501 122.752 25.3616 122.895 25.4675Z" fill="black"></path>
</g>
<path d="M197.933 405.842C198.965 405.033 200 404.236 201.041 403.44C201.681 402.956 202.364 402.533 202.925 401.927C203.079 401.764 203.152 401.479 203.397 401.44L203.392 401.439C203.559 401.268 203.7 401.061 203.892 400.93C204.614 400.429 205.301 399.81 206.051 399.413C206.083 399.397 206.088 399.323 206.128 399.297C206.319 399.166 207.026 398.736 207.452 398.413C208.43 397.667 209.434 396.962 210.658 396.583C210.851 396.527 213.247 395.265 213.936 396.32C214.656 397.416 212.775 399.248 212.477 399.403C211.75 399.77 210.92 399.992 210.394 400.647C209.621 401.605 208.56 402.136 207.645 402.873C206.819 403.536 205.922 404.091 205.1 404.762C204.332 405.392 203.681 406.204 202.865 406.771C202.162 407.259 201.287 407.483 200.524 407.883C200.346 407.977 200.279 408.309 200.085 408.423C199.925 408.515 199.673 408.686 199.463 408.697C199.372 408.7 199.271 408.701 199.237 408.781C199.069 409.161 196.574 410.539 195.743 409.257C194.922 408.011 197.037 406.543 197.933 405.842Z" fill="black"></path>
<path d="M216.664 410.768C217.12 409.867 217.588 408.968 218.059 408.076C218.349 407.526 218.707 407.02 218.877 406.404C218.925 406.235 218.849 405.992 219.027 405.898C219.084 405.72 219.099 405.52 219.195 405.368C219.546 404.791 219.812 404.12 220.237 403.617C220.253 403.597 220.221 403.538 220.244 403.509C220.34 403.356 220.712 402.836 220.905 402.473C221.353 401.634 221.831 400.818 222.65 400.211C222.777 400.118 224.136 398.512 225.196 399.162C226.3 399.839 225.634 401.771 225.466 401.971C225.052 402.447 224.478 402.836 224.357 403.487C224.18 404.444 223.568 405.131 223.168 405.952C222.809 406.69 222.337 407.356 221.989 408.095C221.661 408.793 221.513 409.594 221.116 410.248C220.774 410.809 220.168 411.215 219.736 411.722C219.636 411.844 219.738 412.121 219.634 412.261C219.547 412.375 219.419 412.572 219.259 412.636C219.192 412.661 219.107 412.689 219.114 412.76C219.156 413.105 217.776 414.833 216.497 414.031C215.235 413.25 216.267 411.549 216.664 410.768Z" fill="black"></path>
<path d="M234.987 420.75C234.993 419.316 235.016 417.885 235.039 416.449C235.054 415.567 235.151 414.691 235.025 413.806C234.988 413.566 234.818 413.315 234.939 413.075L234.937 413.081C234.904 412.824 234.837 412.566 234.847 412.314C234.907 411.355 234.842 410.345 235 409.424C235.007 409.391 234.951 409.338 234.953 409.281C234.97 409.024 235.073 408.12 235.083 407.538C235.11 406.189 235.176 404.843 235.637 403.515C235.711 403.305 236.21 400.37 237.451 400.429C238.742 400.487 239.01 403.33 238.94 403.697C238.781 404.577 238.441 405.457 238.621 406.348C238.885 407.651 238.649 408.93 238.651 410.222C238.655 411.38 238.536 412.535 238.55 413.696C238.564 414.782 238.795 415.88 238.73 416.966C238.676 417.903 238.309 418.83 238.149 419.761C238.112 419.979 238.326 420.258 238.297 420.494C238.27 420.691 238.247 421.028 238.126 421.221C238.074 421.302 238.009 421.392 238.053 421.477C238.246 421.873 237.778 424.971 236.272 424.895C234.818 424.812 234.983 421.994 234.987 420.75Z" fill="black"></path>
<path d="M395.44 339.842C395.002 340.164 394.274 340.68 393.301 341.204C392.328 341.728 391.114 342.245 389.779 342.658C388.443 343.071 386.989 343.359 385.568 343.536C384.147 343.706 382.76 343.765 381.548 343.759C378.744 343.719 375.952 343.431 373.209 342.887C370.467 342.346 367.777 341.583 365.149 340.669C359.887 338.838 354.874 336.427 349.975 333.881C348.443 333.083 345.839 331.734 346.047 331.459C346.265 331.171 348.098 331.899 350.77 333.269C354.006 334.919 357.272 336.529 360.616 337.943C363.962 339.346 367.388 340.551 370.885 341.391C373.444 341.993 376.039 342.422 378.651 342.622C379.957 342.733 381.265 342.782 382.569 342.742C383.873 342.705 385.174 342.603 386.454 342.391C387.735 342.178 389 341.879 390.218 341.449C391.437 341.017 392.615 340.48 393.704 339.798C394.791 339.114 395.802 338.306 396.696 337.385C397.58 336.457 398.347 335.419 398.944 334.292C399.472 333.277 399.857 332.187 400.062 331.071C400.264 329.956 400.274 328.803 400.104 327.679C399.938 326.553 399.578 325.455 399.052 324.451C398.525 323.446 397.824 322.536 396.972 321.804C396.872 321.705 396.757 321.624 396.644 321.541L396.308 321.289C396.075 321.133 395.83 320.996 395.592 320.85C395.103 320.59 394.579 320.392 394.039 320.256C392.957 319.982 391.807 319.958 390.703 320.163C389.601 320.368 388.533 320.793 387.627 321.44C386.721 322.082 385.975 322.944 385.543 323.952C385.124 324.898 384.984 325.949 385.102 326.975C385.239 327.998 385.616 328.999 386.184 329.887C387.315 331.671 389.08 333.06 391.047 333.833C391.542 334.022 392.047 334.183 392.564 334.288C393.079 334.392 393.601 334.461 394.124 334.473C394.641 334.489 395.176 334.418 395.706 334.374L396.494 334.235L396.691 334.201C396.756 334.189 396.821 334.168 396.885 334.153L397.273 334.051C398.305 333.775 399.312 333.387 400.261 332.876C400.505 332.761 400.735 332.621 400.969 332.483C401.201 332.346 401.438 332.217 401.661 332.061L402.338 331.611L402.993 331.126C403.185 330.992 403.363 330.837 403.546 330.691C403.727 330.541 403.913 330.398 404.09 330.243C404.44 329.927 404.801 329.627 405.138 329.295C405.309 329.131 405.481 328.97 405.649 328.805L406.144 328.298C406.312 328.131 406.473 327.957 406.632 327.782L407.112 327.258L407.577 326.722C407.734 326.544 407.887 326.363 408.037 326.178L408.489 325.627L408.926 325.063C409.217 324.685 409.511 324.311 409.798 323.93L410.634 322.77C411.728 321.209 412.772 319.608 413.707 317.945L414.063 317.324C414.181 317.118 414.288 316.903 414.402 316.695L415.073 315.429L415.699 314.142C415.802 313.927 415.913 313.715 416.008 313.496L416.298 312.842C416.477 312.429 416.677 312 416.853 311.546C417.029 311.092 417.208 310.625 417.391 310.153C417.485 309.918 417.567 309.677 417.65 309.435C417.734 309.195 417.818 308.954 417.902 308.714C417.987 308.474 418.071 308.236 418.155 307.999C418.233 307.76 418.31 307.523 418.386 307.289C418.511 306.901 418.663 306.451 418.815 305.965C418.958 305.475 419.109 304.954 419.26 304.434C419.34 304.174 419.407 303.912 419.473 303.654C419.539 303.396 419.606 303.141 419.669 302.896C419.733 302.65 419.795 302.414 419.854 302.189C419.907 301.963 419.957 301.749 420.002 301.554C420.158 300.874 420.339 300.171 420.436 299.494C420.56 298.719 420.675 298.09 420.747 297.592C420.828 297.096 420.901 296.737 420.971 296.51C421.108 296.055 421.228 296.123 421.346 296.673C421.397 296.915 421.545 296.663 421.494 297.432C421.493 297.463 421.488 297.527 421.487 297.557C421.376 299.899 420.781 302.235 420.155 304.562C418.605 310.274 416.215 315.759 413.087 320.785C412.99 320.942 412.896 321.102 412.796 321.258L412.491 321.722L411.879 322.649C411.68 322.962 411.457 323.257 411.246 323.561L410.603 324.467C410.162 325.061 409.709 325.646 409.26 326.236L408.558 327.101L407.832 327.947C406.848 329.061 405.798 330.122 404.66 331.093C403.522 332.062 402.297 332.941 400.97 333.659L400.35 333.972L400.04 334.129L399.72 334.264L399.078 334.536C398.861 334.618 398.639 334.688 398.42 334.765C397.985 334.93 397.527 335.027 397.077 335.147C396.965 335.18 396.851 335.2 396.735 335.22L396.391 335.279L396.046 335.338C395.931 335.358 395.816 335.379 395.699 335.385L395.001 335.446C394.77 335.473 394.531 335.472 394.293 335.475C394.055 335.479 393.818 335.455 393.581 335.445C393.346 335.416 393.109 335.398 392.876 335.356C391.943 335.202 391.032 334.927 390.178 334.535C389.323 334.142 388.515 333.65 387.779 333.067C387.046 332.479 386.378 331.806 385.81 331.049C385.252 330.285 384.778 329.447 384.48 328.536L384.372 328.193C384.338 328.078 384.315 327.96 384.286 327.843C384.223 327.611 384.195 327.369 384.153 327.131C384.101 326.651 384.071 326.163 384.122 325.68C384.131 325.548 384.142 325.414 384.166 325.284L384.229 324.89C384.296 324.633 384.344 324.369 384.437 324.119C384.595 323.611 384.823 323.119 385.107 322.664C385.673 321.752 386.462 320.987 387.371 320.425L387.34 320.444C388.275 319.834 389.323 319.417 390.41 319.196C391.497 318.974 392.627 318.95 393.728 319.146C394.767 319.326 395.795 319.727 396.682 320.315C397.576 320.894 398.363 321.635 399.007 322.477C400.3 324.166 401.042 326.23 401.223 328.321C401.315 329.369 401.253 330.428 401.044 331.455C400.836 332.478 400.492 333.461 400.044 334.384C399.146 336.229 397.85 337.823 396.359 339.091C396.245 339.196 396.106 339.313 395.952 339.44C395.786 339.564 395.624 339.709 395.44 339.842Z" fill="black"></path>
<defs>
<clipPath id="clip0_233_57">
<rect width="516" height="397" fill="white"></rect>
</clipPath>
</defs>
</svg>
