<svg width="299" height="12" viewBox="0 0 299 12" fill="none" xmlns="http://www.w3.org/2000/svg">
<path d="M298.595 6.27966C298.514 6.4288 298.426 6.54939 298.332 6.63805L298.222 6.73455H298.145L297.943 6.83105C297.526 6.98267 297.208 7.02402 296.846 7.09294L295.831 7.23075C294.493 7.38237 293.16 7.47893 291.822 7.56163C289.153 7.72704 286.472 7.84643 283.777 7.91994L267.495 8.26454L259.817 8.36104C261.15 8.44374 262.482 8.52647 263.804 8.65053H264.495C268.751 8.92621 267.237 9.43619 268.553 9.83592C274.443 11.6278 269.793 12.1792 252.183 11.8759C248.345 11.807 244.292 11.8759 240.376 11.8759L206.923 11.9586L173.619 11.6554L45.039 12L26.3932 11.7519C20.1852 11.6003 13.9773 11.49 7.74735 11.0213C6.96861 11.0213 6.18439 10.8835 5.40016 10.787C5.00531 10.787 4.61046 10.6767 4.19915 10.5802C3.95604 10.5281 3.71435 10.4407 3.47526 10.3184C3.40436 10.2754 3.33473 10.22 3.26686 10.1529C3.17308 10.058 3.08459 9.93298 3.00363 9.78082C2.8062 9.78082 2.36199 7.64433 2.76233 6.26595C2.89746 5.77592 3.08874 5.40087 3.31073 5.19076L3.47526 5.06667C3.63978 4.97018 3.74398 4.92891 3.85914 4.88756C4.68175 4.72215 5.46049 4.68076 6.26665 4.58427L7.46218 4.44646H8.63028C11.7398 4.32241 14.8492 4.18455 17.9532 4.17077H22.0005C8.69061 3.68833 0.294495 2.47535 0.00383898 1.0694C-0.286817 -0.336556 15.9954 0.00803661 25.5925 0.118308C86.9757 1.04183 148.529 0.890239 210.077 1.01429L289.87 1.27611C292.316 1.27611 294.559 1.27619 296.248 1.35889H297.268C297.454 1.35889 297.608 1.35884 297.844 1.4829H297.926H298.047L298.156 1.5518C298.239 1.6062 298.319 1.67533 298.398 1.75859L298.513 1.8826C298.679 2.1184 298.816 2.46712 298.908 2.88888C299.209 4.62565 298.683 6.48642 298.595 6.27966Z" fill="#246DA8"></path>
</svg>
